{
    "asset" : {
        "generator" : "Khronos glTF Blender I/O v1.5.17",
        "version" : "2.0"
    },
    "scene" : 0,
    "scenes" : [
        {
            "name" : "Scene",
            "nodes" : [
                0,
                1,
                2,
                3,
                4,
                5,
                6,
                7,
                8
            ]
        }
    ],
    "nodes" : [
        {
            "mesh" : 0,
            "name" : "Curve.019",
            "rotation" : [
                0.7071068286895752,
                0,
                0,
                0.7071068286895752
            ],
            "scale" : [
                3.242356777191162,
                3.242356777191162,
                3.242356777191162
            ],
            "translation" : [
                -0.3880341053009033,
                0.16075651347637177,
                0
            ]
        },
        {
            "mesh" : 1,
            "name" : "Curve.020",
            "rotation" : [
                0.7071068286895752,
                0,
                0,
                0.7071068286895752
            ],
            "scale" : [
                3.242356777191162,
                3.242356777191162,
                3.242356777191162
            ],
            "translation" : [
                -0.3880341053009033,
                0.16075651347637177,
                0
            ]
        },
        {
            "mesh" : 2,
            "name" : "Curve.021",
            "rotation" : [
                0.7071068286895752,
                0,
                0,
                0.7071068286895752
            ],
            "scale" : [
                2.012312412261963,
                2.012312412261963,
                2.012312412261963
            ],
            "translation" : [
                -0.7509588003158569,
                -0.07470101118087769,
                0
            ]
        },
        {
            "mesh" : 3,
            "name" : "Curve.022",
            "rotation" : [
                0.7071068286895752,
                0,
                0,
                0.7071068286895752
            ],
            "scale" : [
                2.012312412261963,
                2.012312412261963,
                2.012312412261963
            ],
            "translation" : [
                -0.7509588003158569,
                -0.07470101118087769,
                0
            ]
        },
        {
            "mesh" : 4,
            "name" : "Curve.023",
            "rotation" : [
                0.7071068286895752,
                0,
                0,
                0.7071068286895752
            ],
            "scale" : [
                2.012312412261963,
                2.012312412261963,
                2.012312412261963
            ],
            "translation" : [
                -0.7509588003158569,
                -0.07470101118087769,
                0
            ]
        },
        {
            "mesh" : 5,
            "name" : "Curve.024",
            "rotation" : [
                0.7071068286895752,
                0,
                0,
                0.7071068286895752
            ],
            "scale" : [
                2.012312412261963,
                2.012312412261963,
                2.012312412261963
            ],
            "translation" : [
                -0.7509588003158569,
                -0.07470101118087769,
                0
            ]
        },
        {
            "mesh" : 6,
            "name" : "Curve.025",
            "rotation" : [
                0.7071068286895752,
                0,
                0,
                0.7071068286895752
            ],
            "scale" : [
                2.012312412261963,
                2.012312412261963,
                2.012312412261963
            ],
            "translation" : [
                -0.7509588003158569,
                -0.07470101118087769,
                0
            ]
        },
        {
            "mesh" : 7,
            "name" : "Curve.026",
            "rotation" : [
                0.7071068286895752,
                0,
                0,
                0.7071068286895752
            ],
            "scale" : [
                2.012312412261963,
                2.012312412261963,
                2.012312412261963
            ],
            "translation" : [
                -0.7509588003158569,
                -0.07470101118087769,
                0
            ]
        },
        {
            "mesh" : 8,
            "name" : "Curve.027",
            "rotation" : [
                0.7071068286895752,
                0,
                0,
                0.7071068286895752
            ],
            "scale" : [
                2.012312412261963,
                2.012312412261963,
                2.012312412261963
            ],
            "translation" : [
                -0.7509588003158569,
                -0.07470101118087769,
                0
            ]
        }
    ],
    "materials" : [
        {
            "doubleSided" : true,
            "emissiveFactor" : [
                0.047999992966651917,
                0.23568035662174225,
                0.6000000238418579
            ],
            "name" : "SVGMat.009",
            "pbrMetallicRoughness" : {
                "baseColorFactor" : [
                    0.019359996542334557,
                    0.09505763649940491,
                    0.24199999868869781,
                    1
                ],
                "metallicFactor" : 0,
                "roughnessFactor" : 0.5
            }
        },
        {
            "doubleSided" : true,
            "emissiveFactor" : [
                1,
                0.6394709944725037,
                0
            ],
            "name" : "SVGMat.010",
            "pbrMetallicRoughness" : {
                "baseColorFactor" : [
                    0.8230000138282776,
                    0.18270599842071533,
                    0,
                    1
                ],
                "metallicFactor" : 0,
                "roughnessFactor" : 0.5
            }
        }
    ],
    "meshes" : [
        {
            "name" : "Curve.004",
            "primitives" : [
                {
                    "attributes" : {
                        "POSITION" : 0
                    },
                    "indices" : 1,
                    "material" : 0
                }
            ]
        },
        {
            "name" : "Curve.005",
            "primitives" : [
                {
                    "attributes" : {
                        "POSITION" : 2
                    },
                    "indices" : 3,
                    "material" : 1
                }
            ]
        },
        {
            "name" : "Curve.006",
            "primitives" : [
                {
                    "attributes" : {
                        "POSITION" : 4
                    },
                    "indices" : 5,
                    "material" : 0
                }
            ]
        },
        {
            "name" : "Curve.011",
            "primitives" : [
                {
                    "attributes" : {
                        "POSITION" : 6
                    },
                    "indices" : 7,
                    "material" : 0
                }
            ]
        },
        {
            "name" : "Curve.023",
            "primitives" : [
                {
                    "attributes" : {
                        "POSITION" : 8
                    },
                    "indices" : 9,
                    "material" : 0
                }
            ]
        },
        {
            "name" : "Curve.024",
            "primitives" : [
                {
                    "attributes" : {
                        "POSITION" : 10
                    },
                    "indices" : 11,
                    "material" : 0
                }
            ]
        },
        {
            "name" : "Curve.025",
            "primitives" : [
                {
                    "attributes" : {
                        "POSITION" : 12
                    },
                    "indices" : 13,
                    "material" : 0
                }
            ]
        },
        {
            "name" : "Curve.026",
            "primitives" : [
                {
                    "attributes" : {
                        "POSITION" : 14
                    },
                    "indices" : 15,
                    "material" : 0
                }
            ]
        },
        {
            "name" : "Curve.027",
            "primitives" : [
                {
                    "attributes" : {
                        "POSITION" : 16
                    },
                    "indices" : 17,
                    "material" : 0
                }
            ]
        }
    ],
    "accessors" : [
        {
            "bufferView" : 0,
            "componentType" : 5126,
            "count" : 384,
            "max" : [
                0.14390109479427338,
                0.0024999999441206455,
                -0.04640913009643555
            ],
            "min" : [
                0.09588593244552612,
                -0.0024999999441206455,
                -0.0899667739868164
            ],
            "type" : "VEC3"
        },
        {
            "bufferView" : 1,
            "componentType" : 5123,
            "count" : 1140,
            "type" : "SCALAR"
        },
        {
            "bufferView" : 2,
            "componentType" : 5126,
            "count" : 1720,
            "max" : [
                0.1809418499469757,
                0.007499999832361937,
                -0.006096541881561279
            ],
            "min" : [
                0.003318996634334326,
                -0.007499999832361937,
                -0.15035490691661835
            ],
            "type" : "VEC3"
        },
        {
            "bufferView" : 3,
            "componentType" : 5123,
            "count" : 5160,
            "type" : "SCALAR"
        },
        {
            "bufferView" : 4,
            "componentType" : 5126,
            "count" : 532,
            "max" : [
                0.5172652006149292,
                0.003000000026077032,
                -0.0370560884475708
            ],
            "min" : [
                0.45858752727508545,
                -0.003000000026077032,
                -0.08928394317626953
            ],
            "type" : "VEC3"
        },
        {
            "bufferView" : 5,
            "componentType" : 5123,
            "count" : 1596,
            "type" : "SCALAR"
        },
        {
            "bufferView" : 6,
            "componentType" : 5126,
            "count" : 532,
            "max" : [
                0.3324187994003296,
                0.003000000026077032,
                -0.037024736404418945
            ],
            "min" : [
                0.27375662326812744,
                -0.003000000026077032,
                -0.089255690574646
            ],
            "type" : "VEC3"
        },
        {
            "bufferView" : 7,
            "componentType" : 5123,
            "count" : 1596,
            "type" : "SCALAR"
        },
        {
            "bufferView" : 8,
            "componentType" : 5126,
            "count" : 16,
            "max" : [
                0.27002841234207153,
                0.003000000026077032,
                -0.03864729404449463
            ],
            "min" : [
                0.25500571727752686,
                -0.003000000026077032,
                -0.10009336471557617
            ],
            "type" : "VEC3"
        },
        {
            "bufferView" : 9,
            "componentType" : 5123,
            "count" : 36,
            "type" : "SCALAR"
        },
        {
            "bufferView" : 10,
            "componentType" : 5126,
            "count" : 360,
            "max" : [
                0.391093373298645,
                0.003000000026077032,
                -0.03865361213684082
            ],
            "min" : [
                0.3361501693725586,
                -0.003000000026077032,
                -0.0887075662612915
            ],
            "type" : "VEC3"
        },
        {
            "bufferView" : 11,
            "componentType" : 5123,
            "count" : 1068,
            "type" : "SCALAR"
        },
        {
            "bufferView" : 12,
            "componentType" : 5126,
            "count" : 492,
            "max" : [
                0.4548748731613159,
                0.003000000026077032,
                -0.037021756172180176
            ],
            "min" : [
                0.3948404788970947,
                -0.003000000026077032,
                -0.10399627685546875
            ],
            "type" : "VEC3"
        },
        {
            "bufferView" : 13,
            "componentType" : 5123,
            "count" : 1476,
            "type" : "SCALAR"
        },
        {
            "bufferView" : 14,
            "componentType" : 5126,
            "count" : 448,
            "max" : [
                0.25126808881759644,
                0.003000000026077032,
                -0.03701221942901611
            ],
            "min" : [
                0.19124001264572144,
                -0.003000000026077032,
                -0.10398685932159424
            ],
            "type" : "VEC3"
        },
        {
            "bufferView" : 15,
            "componentType" : 5123,
            "count" : 1344,
            "type" : "SCALAR"
        },
        {
            "bufferView" : 16,
            "componentType" : 5126,
            "count" : 304,
            "max" : [
                0.5551275014877319,
                0.003000000026077032,
                -0.03863787651062012
            ],
            "min" : [
                0.5209966897964478,
                -0.003000000026077032,
                -0.089133620262146
            ],
            "type" : "VEC3"
        },
        {
            "bufferView" : 17,
            "componentType" : 5123,
            "count" : 900,
            "type" : "SCALAR"
        }
    ],
    "bufferViews" : [
        {
            "buffer" : 0,
            "byteLength" : 4608,
            "byteOffset" : 0
        },
        {
            "buffer" : 0,
            "byteLength" : 2280,
            "byteOffset" : 4608
        },
        {
            "buffer" : 0,
            "byteLength" : 20640,
            "byteOffset" : 6888
        },
        {
            "buffer" : 0,
            "byteLength" : 10320,
            "byteOffset" : 27528
        },
        {
            "buffer" : 0,
            "byteLength" : 6384,
            "byteOffset" : 37848
        },
        {
            "buffer" : 0,
            "byteLength" : 3192,
            "byteOffset" : 44232
        },
        {
            "buffer" : 0,
            "byteLength" : 6384,
            "byteOffset" : 47424
        },
        {
            "buffer" : 0,
            "byteLength" : 3192,
            "byteOffset" : 53808
        },
        {
            "buffer" : 0,
            "byteLength" : 192,
            "byteOffset" : 57000
        },
        {
            "buffer" : 0,
            "byteLength" : 72,
            "byteOffset" : 57192
        },
        {
            "buffer" : 0,
            "byteLength" : 4320,
            "byteOffset" : 57264
        },
        {
            "buffer" : 0,
            "byteLength" : 2136,
            "byteOffset" : 61584
        },
        {
            "buffer" : 0,
            "byteLength" : 5904,
            "byteOffset" : 63720
        },
        {
            "buffer" : 0,
            "byteLength" : 2952,
            "byteOffset" : 69624
        },
        {
            "buffer" : 0,
            "byteLength" : 5376,
            "byteOffset" : 72576
        },
        {
            "buffer" : 0,
            "byteLength" : 2688,
            "byteOffset" : 77952
        },
        {
            "buffer" : 0,
            "byteLength" : 3648,
            "byteOffset" : 80640
        },
        {
            "buffer" : 0,
            "byteLength" : 1800,
            "byteOffset" : 84288
        }
    ],
    "buffers" : [
        {
            "byteLength" : 86088,
            "uri" : "data:application/octet-stream;base64,"
        }
    ]
}
