{
    "asset" : {
        "generator" : "Khronos glTF Blender I/O v1.5.17",
        "version" : "2.0"
    },
    "scene" : 0,
    "scenes" : [
        {
            "name" : "Scene",
            "nodes" : [
                0,
                1,
                2,
                3,
                4,
                5
            ]
        }
    ],
    "nodes" : [
        {
            "mesh" : 0,
            "name" : "Curve.011",
            "rotation" : [
                0.7071068286895752,
                0,
                0,
                0.7071068286895752
            ],
            "scale" : [
                6.231842517852783,
                6.231842517852783,
                6.231842517852783
            ],
            "translation" : [
                -0.2687121033668518,
                0,
                0
            ]
        },
        {
            "mesh" : 1,
            "name" : "Curve.012",
            "rotation" : [
                0.7071068286895752,
                0,
                0,
                0.7071068286895752
            ],
            "scale" : [
                6.231842517852783,
                6.231842517852783,
                6.231842517852783
            ],
            "translation" : [
                -0.2687121033668518,
                0,
                0
            ]
        },
        {
            "mesh" : 2,
            "name" : "Curve.013",
            "rotation" : [
                0.7071068286895752,
                0,
                0,
                0.7071068286895752
            ],
            "scale" : [
                6.231842517852783,
                6.231842517852783,
                6.231842517852783
            ],
            "translation" : [
                -0.2687121033668518,
                0,
                0
            ]
        },
        {
            "mesh" : 3,
            "name" : "Curve.014",
            "rotation" : [
                0.7071068286895752,
                0,
                0,
                0.7071068286895752
            ],
            "scale" : [
                6.231842517852783,
                6.231842517852783,
                6.231842517852783
            ],
            "translation" : [
                -0.2687121033668518,
                0,
                0.024188563227653503
            ]
        },
        {
            "mesh" : 4,
            "name" : "Curve.015",
            "rotation" : [
                0.7071068286895752,
                0,
                0,
                0.7071068286895752
            ],
            "scale" : [
                6.231842517852783,
                6.231842517852783,
                6.231842517852783
            ],
            "translation" : [
                -0.2687121033668518,
                0,
                0.024188563227653503
            ]
        },
        {
            "mesh" : 5,
            "name" : "Curve.016",
            "rotation" : [
                0.7071068286895752,
                0,
                0,
                0.7071068286895752
            ],
            "scale" : [
                6.231842517852783,
                6.231842517852783,
                6.231842517852783
            ],
            "translation" : [
                -0.2687121033668518,
                0,
                0.024188563227653503
            ]
        }
    ],
    "materials" : [
        {
            "doubleSided" : true,
            "emissiveFactor" : [
                0,
                0.09893602877855301,
                0.3319999873638153
            ],
            "name" : "SVGMat.017",
            "pbrMetallicRoughness" : {
                "baseColorFactor" : [
                    0,
                    0.05588153004646301,
                    0.1800258755683899,
                    1
                ],
                "metallicFactor" : 0,
                "roughnessFactor" : 0.5
            }
        },
        {
            "doubleSided" : true,
            "emissiveFactor" : [
                0,
                0.057088010013103485,
                0.22300000488758087
            ],
            "name" : "SVGMat.018",
            "pbrMetallicRoughness" : {
                "baseColorFactor" : [
                    0,
                    0.057088062167167664,
                    0.22300000488758087,
                    1
                ],
                "metallicFactor" : 0,
                "roughnessFactor" : 0.5
            }
        },
        {
            "doubleSided" : true,
            "emissiveFactor" : [
                0.13008801639080048,
                0.32331913709640503,
                0.6439999938011169
            ],
            "name" : "SVGMat.019",
            "pbrMetallicRoughness" : {
                "baseColorFactor" : [
                    0.13008804619312286,
                    0.32331913709640503,
                    0.6439999938011169,
                    1
                ],
                "metallicFactor" : 0,
                "roughnessFactor" : 0.5
            }
        },
        {
            "doubleSided" : true,
            "emissiveFactor" : [
                1,
                1,
                1
            ],
            "name" : "SVGMat.020",
            "pbrMetallicRoughness" : {
                "baseColorFactor" : [
                    0.800000011920929,
                    0.800000011920929,
                    0.800000011920929,
                    1
                ],
                "metallicFactor" : 0,
                "roughnessFactor" : 0.5
            }
        }
    ],
    "meshes" : [
        {
            "name" : "Curve.017",
            "primitives" : [
                {
                    "attributes" : {
                        "POSITION" : 0,
                        "NORMAL" : 1,
                        "TEXCOORD_0" : 2
                    },
                    "indices" : 3,
                    "material" : 0
                }
            ]
        },
        {
            "name" : "Curve.018",
            "primitives" : [
                {
                    "attributes" : {
                        "POSITION" : 4,
                        "NORMAL" : 5,
                        "TEXCOORD_0" : 6
                    },
                    "indices" : 7,
                    "material" : 1
                }
            ]
        },
        {
            "name" : "Curve.019",
            "primitives" : [
                {
                    "attributes" : {
                        "POSITION" : 8,
                        "NORMAL" : 9,
                        "TEXCOORD_0" : 10
                    },
                    "indices" : 11,
                    "material" : 2
                }
            ]
        },
        {
            "name" : "Curve.020",
            "primitives" : [
                {
                    "attributes" : {
                        "POSITION" : 12,
                        "NORMAL" : 13,
                        "TEXCOORD_0" : 14
                    },
                    "indices" : 15,
                    "material" : 3
                }
            ]
        },
        {
            "name" : "Curve.021",
            "primitives" : [
                {
                    "attributes" : {
                        "POSITION" : 16,
                        "NORMAL" : 17,
                        "TEXCOORD_0" : 18
                    },
                    "indices" : 19,
                    "material" : 3
                }
            ]
        },
        {
            "name" : "Curve.022",
            "primitives" : [
                {
                    "attributes" : {
                        "POSITION" : 20,
                        "NORMAL" : 21,
                        "TEXCOORD_0" : 22
                    },
                    "indices" : 19,
                    "material" : 3
                }
            ]
        }
    ],
    "accessors" : [
        {
            "bufferView" : 0,
            "componentType" : 5126,
            "count" : 372,
            "max" : [
                0.08636176586151123,
                0.004000000189989805,
                -0.02429131418466568
            ],
            "min" : [
                0.043180882930755615,
                -0.004000000189989805,
                -0.07287336885929108
            ],
            "type" : "VEC3"
        },
        {
            "bufferView" : 1,
            "componentType" : 5126,
            "count" : 372,
            "type" : "VEC3"
        },
        {
            "bufferView" : 2,
            "componentType" : 5126,
            "count" : 372,
            "type" : "VEC2"
        },
        {
            "bufferView" : 3,
            "componentType" : 5123,
            "count" : 708,
            "type" : "SCALAR"
        },
        {
            "bufferView" : 4,
            "componentType" : 5126,
            "count" : 362,
            "max" : [
                0.08526305109262466,
                0.0024999999441206455,
                -2.7939677238464355e-07
            ],
            "min" : [
                0.001098713488318026,
                -0.0024999999441206455,
                -0.04858234152197838
            ],
            "type" : "VEC3"
        },
        {
            "bufferView" : 5,
            "componentType" : 5126,
            "count" : 362,
            "type" : "VEC3"
        },
        {
            "bufferView" : 6,
            "componentType" : 5126,
            "count" : 362,
            "type" : "VEC2"
        },
        {
            "bufferView" : 7,
            "componentType" : 5123,
            "count" : 732,
            "type" : "SCALAR"
        },
        {
            "bufferView" : 8,
            "componentType" : 5126,
            "count" : 682,
            "max" : [
                0.08526333421468735,
                0.006000000052154064,
                -0.02429131418466568
            ],
            "min" : [
                0,
                -0.006000000052154064,
                -0.09716468304395676
            ],
            "type" : "VEC3"
        },
        {
            "bufferView" : 9,
            "componentType" : 5126,
            "count" : 682,
            "type" : "VEC3"
        },
        {
            "bufferView" : 10,
            "componentType" : 5126,
            "count" : 682,
            "type" : "VEC2"
        },
        {
            "bufferView" : 11,
            "componentType" : 5123,
            "count" : 1284,
            "type" : "SCALAR"
        },
        {
            "bufferView" : 12,
            "componentType" : 5126,
            "count" : 807,
            "max" : [
                0.06811121106147766,
                0.004999999888241291,
                -0.019801169633865356
            ],
            "min" : [
                0.014393627643585205,
                -0.004999999888241291,
                -0.0773635134100914
            ],
            "type" : "VEC3"
        },
        {
            "bufferView" : 13,
            "componentType" : 5126,
            "count" : 807,
            "type" : "VEC3"
        },
        {
            "bufferView" : 14,
            "componentType" : 5126,
            "count" : 807,
            "type" : "VEC2"
        },
        {
            "bufferView" : 15,
            "componentType" : 5123,
            "count" : 1428,
            "type" : "SCALAR"
        },
        {
            "bufferView" : 16,
            "componentType" : 5126,
            "count" : 53,
            "max" : [
                0.07196813821792603,
                0.004999999888241291,
                -0.04378547891974449
            ],
            "min" : [
                0.06237238645553589,
                -0.004999999888241291,
                -0.053379204124212265
            ],
            "type" : "VEC3"
        },
        {
            "bufferView" : 17,
            "componentType" : 5126,
            "count" : 53,
            "type" : "VEC3"
        },
        {
            "bufferView" : 18,
            "componentType" : 5126,
            "count" : 53,
            "type" : "VEC2"
        },
        {
            "bufferView" : 19,
            "componentType" : 5123,
            "count" : 132,
            "type" : "SCALAR"
        },
        {
            "bufferView" : 20,
            "componentType" : 5126,
            "count" : 53,
            "max" : [
                0.0839628279209137,
                0.004999999888241291,
                -0.04378547891974449
            ],
            "min" : [
                0.07436707615852356,
                -0.004999999888241291,
                -0.053379204124212265
            ],
            "type" : "VEC3"
        },
        {
            "bufferView" : 21,
            "componentType" : 5126,
            "count" : 53,
            "type" : "VEC3"
        },
        {
            "bufferView" : 22,
            "componentType" : 5126,
            "count" : 53,
            "type" : "VEC2"
        }
    ],
    "bufferViews" : [
        {
            "buffer" : 0,
            "byteLength" : 4464,
            "byteOffset" : 0
        },
        {
            "buffer" : 0,
            "byteLength" : 4464,
            "byteOffset" : 4464
        },
        {
            "buffer" : 0,
            "byteLength" : 2976,
            "byteOffset" : 8928
        },
        {
            "buffer" : 0,
            "byteLength" : 1416,
            "byteOffset" : 11904
        },
        {
            "buffer" : 0,
            "byteLength" : 4344,
            "byteOffset" : 13320
        },
        {
            "buffer" : 0,
            "byteLength" : 4344,
            "byteOffset" : 17664
        },
        {
            "buffer" : 0,
            "byteLength" : 2896,
            "byteOffset" : 22008
        },
        {
            "buffer" : 0,
            "byteLength" : 1464,
            "byteOffset" : 24904
        },
        {
            "buffer" : 0,
            "byteLength" : 8184,
            "byteOffset" : 26368
        },
        {
            "buffer" : 0,
            "byteLength" : 8184,
            "byteOffset" : 34552
        },
        {
            "buffer" : 0,
            "byteLength" : 5456,
            "byteOffset" : 42736
        },
        {
            "buffer" : 0,
            "byteLength" : 2568,
            "byteOffset" : 48192
        },
        {
            "buffer" : 0,
            "byteLength" : 9684,
            "byteOffset" : 50760
        },
        {
            "buffer" : 0,
            "byteLength" : 9684,
            "byteOffset" : 60444
        },
        {
            "buffer" : 0,
            "byteLength" : 6456,
            "byteOffset" : 70128
        },
        {
            "buffer" : 0,
            "byteLength" : 2856,
            "byteOffset" : 76584
        },
        {
            "buffer" : 0,
            "byteLength" : 636,
            "byteOffset" : 79440
        },
        {
            "buffer" : 0,
            "byteLength" : 636,
            "byteOffset" : 80076
        },
        {
            "buffer" : 0,
            "byteLength" : 424,
            "byteOffset" : 80712
        },
        {
            "buffer" : 0,
            "byteLength" : 264,
            "byteOffset" : 81136
        },
        {
            "buffer" : 0,
            "byteLength" : 636,
            "byteOffset" : 81400
        },
        {
            "buffer" : 0,
            "byteLength" : 636,
            "byteOffset" : 82036
        },
        {
            "buffer" : 0,
            "byteLength" : 424,
            "byteOffset" : 82672
        }
    ],
    "buffers" : [
        {
            "byteLength" : 83096,
            "uri" : "data:application/octet-stream;base64,"
        }
    ]
}
