{
    "asset" : {
        "generator" : "Khronos glTF Blender I/O v1.5.17",
        "version" : "2.0"
    },
    "scene" : 0,
    "scenes" : [
        {
            "name" : "Scene",
            "nodes" : [
                0,
                1,
                2,
                3,
                4,
                5,
                6,
                7,
                8
            ]
        }
    ],
    "nodes" : [
        {
            "mesh" : 0,
            "name" : "polygon2989",
            "rotation" : [
                0.7071068286895752,
                0,
                0,
                0.7071068286895752
            ],
            "scale" : [
                4.591174125671387,
                4.591174125671387,
                4.591174125671387
            ],
            "translation" : [
                -0.2347201555967331,
                0,
                0
            ]
        },
        {
            "mesh" : 1,
            "name" : "polygon2991",
            "rotation" : [
                0.7071068286895752,
                0,
                0,
                0.7071068286895752
            ],
            "scale" : [
                4.591174125671387,
                4.591174125671387,
                4.591174125671387
            ],
            "translation" : [
                -0.2347201555967331,
                0,
                0
            ]
        },
        {
            "mesh" : 2,
            "name" : "polygon2993",
            "rotation" : [
                0.7071068286895752,
                0,
                0,
                0.7071068286895752
            ],
            "scale" : [
                4.591174125671387,
                4.591174125671387,
                4.591174125671387
            ],
            "translation" : [
                -0.2347201555967331,
                0,
                0.014467617496848106
            ]
        },
        {
            "mesh" : 3,
            "name" : "polygon2995",
            "rotation" : [
                0.7071068286895752,
                0,
                0,
                0.7071068286895752
            ],
            "scale" : [
                4.591174125671387,
                4.591174125671387,
                4.591174125671387
            ],
            "translation" : [
                -0.2347201555967331,
                0,
                0.014467617496848106
            ]
        },
        {
            "mesh" : 4,
            "name" : "polygon2997",
            "rotation" : [
                0.7071068286895752,
                0,
                0,
                0.7071068286895752
            ],
            "scale" : [
                4.591174125671387,
                4.591174125671387,
                4.591174125671387
            ],
            "translation" : [
                -0.2347201555967331,
                0,
                0.014467617496848106
            ]
        },
        {
            "mesh" : 5,
            "name" : "path2999",
            "rotation" : [
                0.7071068286895752,
                0,
                0,
                0.7071068286895752
            ],
            "scale" : [
                4.591174125671387,
                4.591174125671387,
                4.591174125671387
            ],
            "translation" : [
                -0.2347201555967331,
                0,
                0
            ]
        },
        {
            "mesh" : 6,
            "name" : "path3001",
            "rotation" : [
                0.7071068286895752,
                0,
                0,
                0.7071068286895752
            ],
            "scale" : [
                4.591174125671387,
                4.591174125671387,
                4.591174125671387
            ],
            "translation" : [
                -0.2347201555967331,
                0,
                0
            ]
        },
        {
            "mesh" : 7,
            "name" : "path3003",
            "rotation" : [
                0.7071068286895752,
                0,
                0,
                0.7071068286895752
            ],
            "scale" : [
                4.591174125671387,
                4.591174125671387,
                4.591174125671387
            ],
            "translation" : [
                -0.2347201555967331,
                0,
                0
            ]
        },
        {
            "mesh" : 8,
            "name" : "polygon3005",
            "rotation" : [
                0.7071068286895752,
                0,
                0,
                0.7071068286895752
            ],
            "scale" : [
                4.591174125671387,
                4.591174125671387,
                4.591174125671387
            ],
            "translation" : [
                -0.2347201555967331,
                0,
                0.014467617496848106
            ]
        }
    ],
    "materials" : [
        {
            "doubleSided" : true,
            "emissiveFactor" : [
                0.019399981945753098,
                0.07236212491989136,
                0.7760000228881836
            ],
            "name" : "SVGMat.029",
            "pbrMetallicRoughness" : {
                "baseColorFactor" : [
                    0.019399981945753098,
                    0.0723624899983406,
                    0.7760000228881836,
                    1
                ],
                "metallicFactor" : 0,
                "roughnessFactor" : 0.5
            }
        },
        {
            "doubleSided" : true,
            "emissiveFactor" : [
                0.02199997939169407,
                0.1283920556306839,
                0.8799999952316284
            ],
            "name" : "SVGMat.030",
            "pbrMetallicRoughness" : {
                "baseColorFactor" : [
                    0.02199997939169407,
                    0.1283920556306839,
                    0.8799999952316284,
                    1
                ],
                "metallicFactor" : 0,
                "roughnessFactor" : 0.5
            }
        },
        {
            "doubleSided" : true,
            "emissiveFactor" : [
                1,
                1,
                1
            ],
            "name" : "SVGMat.028",
            "pbrMetallicRoughness" : {
                "baseColorFactor" : [
                    0.800000011920929,
                    0.800000011920929,
                    0.800000011920929,
                    1
                ],
                "metallicFactor" : 0,
                "roughnessFactor" : 0.5
            }
        }
    ],
    "meshes" : [
        {
            "name" : "polygon2989",
            "primitives" : [
                {
                    "attributes" : {
                        "POSITION" : 0
                    },
                    "indices" : 1,
                    "material" : 0
                }
            ]
        },
        {
            "name" : "polygon2991",
            "primitives" : [
                {
                    "attributes" : {
                        "POSITION" : 2
                    },
                    "indices" : 3,
                    "material" : 1
                }
            ]
        },
        {
            "name" : "polygon2993",
            "primitives" : [
                {
                    "attributes" : {
                        "POSITION" : 4
                    },
                    "indices" : 5,
                    "material" : 2
                }
            ]
        },
        {
            "name" : "polygon2995",
            "primitives" : [
                {
                    "attributes" : {
                        "POSITION" : 6
                    },
                    "indices" : 7,
                    "material" : 2
                }
            ]
        },
        {
            "name" : "polygon2997",
            "primitives" : [
                {
                    "attributes" : {
                        "POSITION" : 8
                    },
                    "indices" : 9,
                    "material" : 2
                }
            ]
        },
        {
            "name" : "path2999",
            "primitives" : [
                {
                    "attributes" : {
                        "POSITION" : 10
                    },
                    "indices" : 11,
                    "material" : 2
                }
            ]
        },
        {
            "name" : "path3001",
            "primitives" : [
                {
                    "attributes" : {
                        "POSITION" : 12
                    },
                    "indices" : 13,
                    "material" : 2
                }
            ]
        },
        {
            "name" : "path3003",
            "primitives" : [
                {
                    "attributes" : {
                        "POSITION" : 14
                    },
                    "indices" : 13,
                    "material" : 2
                }
            ]
        },
        {
            "name" : "polygon3005",
            "primitives" : [
                {
                    "attributes" : {
                        "POSITION" : 15
                    },
                    "indices" : 16,
                    "material" : 2
                }
            ]
        }
    ],
    "accessors" : [
        {
            "bufferView" : 0,
            "componentType" : 5126,
            "count" : 20,
            "max" : [
                0.1023736447095871,
                0.004999999888241291,
                1.4901161193847656e-08
            ],
            "min" : [
                1.862645149230957e-09,
                -0.004999999888241291,
                -0.11607835441827774
            ],
            "type" : "VEC3"
        },
        {
            "bufferView" : 1,
            "componentType" : 5123,
            "count" : 48,
            "type" : "SCALAR"
        },
        {
            "bufferView" : 2,
            "componentType" : 5126,
            "count" : 16,
            "max" : [
                0.09303273260593414,
                0.005009999964386225,
                -0.008881792426109314
            ],
            "min" : [
                0.05118681862950325,
                -0.005009999964386225,
                -0.10753599554300308
            ],
            "type" : "VEC3"
        },
        {
            "bufferView" : 3,
            "componentType" : 5123,
            "count" : 36,
            "type" : "SCALAR"
        },
        {
            "bufferView" : 4,
            "componentType" : 5126,
            "count" : 16,
            "max" : [
                0.05118681862950325,
                0.007499999832361937,
                -0.05597454309463501
            ],
            "min" : [
                0.021358158439397812,
                -0.007499999832361937,
                -0.06878780573606491
            ],
            "type" : "VEC3"
        },
        {
            "bufferView" : 5,
            "componentType" : 5123,
            "count" : 36,
            "type" : "SCALAR"
        },
        {
            "bufferView" : 6,
            "componentType" : 5126,
            "count" : 20,
            "max" : [
                0.05118681862950325,
                0.007499999832361937,
                -0.08190891146659851
            ],
            "min" : [
                0.019050098955631256,
                -0.007499999832361937,
                -0.0947224572300911
            ],
            "type" : "VEC3"
        },
        {
            "bufferView" : 7,
            "componentType" : 5123,
            "count" : 48,
            "type" : "SCALAR"
        },
        {
            "bufferView" : 8,
            "componentType" : 5126,
            "count" : 36,
            "max" : [
                0.05118681862950325,
                0.007499999832361937,
                -0.02216232568025589
            ],
            "min" : [
                0.023079462349414825,
                -0.007499999832361937,
                -0.049567632377147675
            ],
            "type" : "VEC3"
        },
        {
            "bufferView" : 9,
            "componentType" : 5123,
            "count" : 96,
            "type" : "SCALAR"
        },
        {
            "bufferView" : 10,
            "componentType" : 5126,
            "count" : 32,
            "max" : [
                0.03961547836661339,
                0.0010000000474974513,
                -0.12500052154064178
            ],
            "min" : [
                0.02409294620156288,
                -0.0010000000474974513,
                -0.14447012543678284
            ],
            "type" : "VEC3"
        },
        {
            "bufferView" : 11,
            "componentType" : 5123,
            "count" : 84,
            "type" : "SCALAR"
        },
        {
            "bufferView" : 12,
            "componentType" : 5126,
            "count" : 48,
            "max" : [
                0.058242518454790115,
                0.0010000000474974513,
                -0.12471834570169449
            ],
            "min" : [
                0.04271998628973961,
                -0.0010000000474974513,
                -0.14447012543678284
            ],
            "type" : "VEC3"
        },
        {
            "bufferView" : 13,
            "componentType" : 5123,
            "count" : 132,
            "type" : "SCALAR"
        },
        {
            "bufferView" : 14,
            "componentType" : 5126,
            "count" : 48,
            "max" : [
                0.07686954736709595,
                0.0010000000474974513,
                -0.12471834570169449
            ],
            "min" : [
                0.06134701892733574,
                -0.0010000000474974513,
                -0.14447012543678284
            ],
            "type" : "VEC3"
        },
        {
            "bufferView" : 15,
            "componentType" : 5126,
            "count" : 60,
            "max" : [
                0.08324705064296722,
                0.007499999832361937,
                -0.022168532013893127
            ],
            "min" : [
                0.051142510026693344,
                -0.007499999832361937,
                -0.0947224572300911
            ],
            "type" : "VEC3"
        },
        {
            "bufferView" : 16,
            "componentType" : 5123,
            "count" : 168,
            "type" : "SCALAR"
        }
    ],
    "bufferViews" : [
        {
            "buffer" : 0,
            "byteLength" : 240,
            "byteOffset" : 0
        },
        {
            "buffer" : 0,
            "byteLength" : 96,
            "byteOffset" : 240
        },
        {
            "buffer" : 0,
            "byteLength" : 192,
            "byteOffset" : 336
        },
        {
            "buffer" : 0,
            "byteLength" : 72,
            "byteOffset" : 528
        },
        {
            "buffer" : 0,
            "byteLength" : 192,
            "byteOffset" : 600
        },
        {
            "buffer" : 0,
            "byteLength" : 72,
            "byteOffset" : 792
        },
        {
            "buffer" : 0,
            "byteLength" : 240,
            "byteOffset" : 864
        },
        {
            "buffer" : 0,
            "byteLength" : 96,
            "byteOffset" : 1104
        },
        {
            "buffer" : 0,
            "byteLength" : 432,
            "byteOffset" : 1200
        },
        {
            "buffer" : 0,
            "byteLength" : 192,
            "byteOffset" : 1632
        },
        {
            "buffer" : 0,
            "byteLength" : 384,
            "byteOffset" : 1824
        },
        {
            "buffer" : 0,
            "byteLength" : 168,
            "byteOffset" : 2208
        },
        {
            "buffer" : 0,
            "byteLength" : 576,
            "byteOffset" : 2376
        },
        {
            "buffer" : 0,
            "byteLength" : 264,
            "byteOffset" : 2952
        },
        {
            "buffer" : 0,
            "byteLength" : 576,
            "byteOffset" : 3216
        },
        {
            "buffer" : 0,
            "byteLength" : 720,
            "byteOffset" : 3792
        },
        {
            "buffer" : 0,
            "byteLength" : 336,
            "byteOffset" : 4512
        }
    ],
    "buffers" : [
        {
            "byteLength" : 4848,
            "uri" : "data:application/octet-stream;base64,"
        }
    ]
}
