{
    "asset" : {
        "generator" : "Khronos glTF Blender I/O v1.5.17",
        "version" : "2.0"
    },
    "scene" : 0,
    "scenes" : [
        {
            "name" : "Scene",
            "nodes" : [
                0,
                1,
                2,
                3,
                4,
                5
            ]
        }
    ],
    "nodes" : [
        {
            "mesh" : 0,
            "name" : "Curve.046",
            "rotation" : [
                0.7071068286895752,
                0,
                0,
                0.7071068286895752
            ],
            "scale" : [
                13.739927291870117,
                13.739927291870117,
                13.739927291870117
            ],
            "translation" : [
                -0.18848364055156708,
                0.13907893002033234,
                0.0009284103289246559
            ]
        },
        {
            "mesh" : 1,
            "name" : "Curve.040",
            "rotation" : [
                0.7071068286895752,
                0,
                0,
                0.7071068286895752
            ],
            "scale" : [
                6.400843143463135,
                6.400843143463135,
                6.400843143463135
            ],
            "translation" : [
                -0.5427868366241455,
                -0.06488890945911407,
                0.0018192073330283165
            ]
        },
        {
            "mesh" : 2,
            "name" : "Curve.041",
            "rotation" : [
                0.7071068286895752,
                0,
                0,
                0.7071068286895752
            ],
            "scale" : [
                13.739927291870117,
                13.739927291870117,
                13.739927291870117
            ],
            "translation" : [
                -0.18848364055156708,
                0.13907893002033234,
                0.0009284103289246559
            ]
        },
        {
            "mesh" : 3,
            "name" : "Curve.042",
            "rotation" : [
                0.7071068286895752,
                0,
                0,
                0.7071068286895752
            ],
            "scale" : [
                13.739927291870117,
                13.739927291870117,
                13.739927291870117
            ],
            "translation" : [
                -0.18848364055156708,
                0.13907893002033234,
                0.01776665262877941
            ]
        },
        {
            "mesh" : 4,
            "name" : "Curve.043",
            "rotation" : [
                0.7071068286895752,
                0,
                0,
                0.7071068286895752
            ],
            "scale" : [
                13.739927291870117,
                13.739927291870117,
                13.739927291870117
            ],
            "translation" : [
                -0.18848364055156708,
                0.13907893002033234,
                0.029434531927108765
            ]
        },
        {
            "mesh" : 5,
            "name" : "Curve.045",
            "rotation" : [
                0.7071068286895752,
                0,
                0,
                0.7071068286895752
            ],
            "scale" : [
                13.739927291870117,
                13.739927291870117,
                13.739927291870117
            ],
            "translation" : [
                -0.18848364055156708,
                0.13907893002033234,
                0.0009284103289246559
            ]
        }
    ],
    "materials" : [
        {
            "doubleSided" : true,
            "name" : "SVGMat.022",
            "pbrMetallicRoughness" : {
                "baseColorFactor" : [
                    0.3762621283531189,
                    0.020288562402129173,
                    0.006995410192757845,
                    1
                ],
                "metallicFactor" : 0,
                "roughnessFactor" : 0.4000000059604645
            }
        },
        {
            "doubleSided" : true,
            "emissiveFactor" : [
                1,
                1,
                1
            ],
            "name" : "SVGMat.028",
            "pbrMetallicRoughness" : {
                "baseColorFactor" : [
                    0.800000011920929,
                    0.800000011920929,
                    0.800000011920929,
                    1
                ],
                "metallicFactor" : 0,
                "roughnessFactor" : 0.5
            }
        },
        {
            "doubleSided" : true,
            "emissiveFactor" : [
                1,
                0.6227272152900696,
                0
            ],
            "name" : "SVGMat.013",
            "pbrMetallicRoughness" : {
                "baseColorFactor" : [
                    1,
                    0.3535034954547882,
                    0,
                    1
                ],
                "metallicFactor" : 0,
                "roughnessFactor" : 0.5
            }
        },
        {
            "doubleSided" : true,
            "emissiveFactor" : [
                1,
                0.4691348671913147,
                0
            ],
            "name" : "SVGMat.014",
            "pbrMetallicRoughness" : {
                "baseColorFactor" : [
                    0.9129999876022339,
                    0.20268599689006805,
                    0,
                    1
                ],
                "metallicFactor" : 0,
                "roughnessFactor" : 0.5
            }
        },
        {
            "doubleSided" : true,
            "emissiveFactor" : [
                1,
                0.7529639601707458,
                0
            ],
            "name" : "SVGMat.015",
            "pbrMetallicRoughness" : {
                "baseColorFactor" : [
                    1,
                    0.5907779932022095,
                    0.021000027656555176,
                    1
                ],
                "metallicFactor" : 0,
                "roughnessFactor" : 0.5
            }
        },
        {
            "doubleSided" : true,
            "name" : "SVGMat.021",
            "pbrMetallicRoughness" : {
                "baseColorFactor" : [
                    0.3762621283531189,
                    0.020288562402129173,
                    0.006995410192757845,
                    1
                ],
                "metallicFactor" : 0,
                "roughnessFactor" : 0.4000000059604645
            }
        }
    ],
    "meshes" : [
        {
            "name" : "Curve.046",
            "primitives" : [
                {
                    "attributes" : {
                        "POSITION" : 0,
                        "NORMAL" : 1,
                        "TEXCOORD_0" : 2
                    },
                    "indices" : 3,
                    "material" : 0
                }
            ]
        },
        {
            "name" : "Curve.040",
            "primitives" : [
                {
                    "attributes" : {
                        "POSITION" : 4,
                        "NORMAL" : 5,
                        "TEXCOORD_0" : 6
                    },
                    "indices" : 7,
                    "material" : 1
                }
            ]
        },
        {
            "name" : "Curve.041",
            "primitives" : [
                {
                    "attributes" : {
                        "POSITION" : 8,
                        "NORMAL" : 9,
                        "TEXCOORD_0" : 10
                    },
                    "indices" : 11,
                    "material" : 2
                }
            ]
        },
        {
            "name" : "Curve.042",
            "primitives" : [
                {
                    "attributes" : {
                        "POSITION" : 12,
                        "NORMAL" : 13,
                        "TEXCOORD_0" : 14
                    },
                    "indices" : 15,
                    "material" : 3
                }
            ]
        },
        {
            "name" : "Curve.043",
            "primitives" : [
                {
                    "attributes" : {
                        "POSITION" : 16,
                        "NORMAL" : 17,
                        "TEXCOORD_0" : 18
                    },
                    "indices" : 19,
                    "material" : 4
                }
            ]
        },
        {
            "name" : "Curve.045",
            "primitives" : [
                {
                    "attributes" : {
                        "POSITION" : 20,
                        "NORMAL" : 21,
                        "TEXCOORD_0" : 22
                    },
                    "indices" : 3,
                    "material" : 5
                }
            ]
        }
    ],
    "accessors" : [
        {
            "bufferView" : 0,
            "componentType" : 5126,
            "count" : 84,
            "max" : [
                0.02714087814092636,
                0,
                -0.0019669951871037483
            ],
            "min" : [
                0.00023518037050962448,
                0,
                -0.009302020072937012
            ],
            "type" : "VEC3"
        },
        {
            "bufferView" : 1,
            "componentType" : 5126,
            "count" : 84,
            "type" : "VEC3"
        },
        {
            "bufferView" : 2,
            "componentType" : 5126,
            "count" : 84,
            "type" : "VEC2"
        },
        {
            "bufferView" : 3,
            "componentType" : 5123,
            "count" : 186,
            "type" : "SCALAR"
        },
        {
            "bufferView" : 4,
            "componentType" : 5126,
            "count" : 9263,
            "max" : [
                0.13271352648735046,
                0.0010000000474974513,
                -0.010159162804484367
            ],
            "min" : [
                0.03725409507751465,
                -0.0010000000474974513,
                -0.029908547177910805
            ],
            "type" : "VEC3"
        },
        {
            "bufferView" : 5,
            "componentType" : 5126,
            "count" : 9263,
            "type" : "VEC3"
        },
        {
            "bufferView" : 6,
            "componentType" : 5126,
            "count" : 9263,
            "type" : "VEC2"
        },
        {
            "bufferView" : 7,
            "componentType" : 5123,
            "count" : 16956,
            "type" : "SCALAR"
        },
        {
            "bufferView" : 8,
            "componentType" : 5126,
            "count" : 428,
            "max" : [
                0.02714071050286293,
                0.0010000000474974513,
                -0.009108763188123703
            ],
            "min" : [
                0.00023518037050962448,
                -0.0010000000474974513,
                -0.038946982473134995
            ],
            "type" : "VEC3"
        },
        {
            "bufferView" : 9,
            "componentType" : 5126,
            "count" : 428,
            "type" : "VEC3"
        },
        {
            "bufferView" : 10,
            "componentType" : 5126,
            "count" : 428,
            "type" : "VEC2"
        },
        {
            "bufferView" : 11,
            "componentType" : 5123,
            "count" : 888,
            "type" : "SCALAR"
        },
        {
            "bufferView" : 12,
            "componentType" : 5126,
            "count" : 14,
            "max" : [
                0.015964509919285774,
                0.0010000000474974513,
                -0.009108763188123703
            ],
            "min" : [
                0.00023520924150943756,
                -0.0010000000474974513,
                -0.029727227985858917
            ],
            "type" : "VEC3"
        },
        {
            "bufferView" : 13,
            "componentType" : 5126,
            "count" : 14,
            "type" : "VEC3"
        },
        {
            "bufferView" : 14,
            "componentType" : 5126,
            "count" : 14,
            "type" : "VEC2"
        },
        {
            "bufferView" : 15,
            "componentType" : 5123,
            "count" : 24,
            "type" : "SCALAR"
        },
        {
            "bufferView" : 16,
            "componentType" : 5126,
            "count" : 384,
            "max" : [
                0.02714090794324875,
                0.0010000000474974513,
                -0.0019653039053082466
            ],
            "min" : [
                0.00023520924150943756,
                -0.0010000000474974513,
                -0.03138323128223419
            ],
            "type" : "VEC3"
        },
        {
            "bufferView" : 17,
            "componentType" : 5126,
            "count" : 384,
            "type" : "VEC3"
        },
        {
            "bufferView" : 18,
            "componentType" : 5126,
            "count" : 384,
            "type" : "VEC2"
        },
        {
            "bufferView" : 19,
            "componentType" : 5123,
            "count" : 732,
            "type" : "SCALAR"
        },
        {
            "bufferView" : 20,
            "componentType" : 5126,
            "count" : 84,
            "max" : [
                0.02714087814092636,
                0,
                -0.0019669951871037483
            ],
            "min" : [
                0.00023518037050962448,
                0,
                -0.009302020072937012
            ],
            "type" : "VEC3"
        },
        {
            "bufferView" : 21,
            "componentType" : 5126,
            "count" : 84,
            "type" : "VEC3"
        },
        {
            "bufferView" : 22,
            "componentType" : 5126,
            "count" : 84,
            "type" : "VEC2"
        }
    ],
    "bufferViews" : [
        {
            "buffer" : 0,
            "byteLength" : 1008,
            "byteOffset" : 0
        },
        {
            "buffer" : 0,
            "byteLength" : 1008,
            "byteOffset" : 1008
        },
        {
            "buffer" : 0,
            "byteLength" : 672,
            "byteOffset" : 2016
        },
        {
            "buffer" : 0,
            "byteLength" : 372,
            "byteOffset" : 2688
        },
        {
            "buffer" : 0,
            "byteLength" : 111156,
            "byteOffset" : 3060
        },
        {
            "buffer" : 0,
            "byteLength" : 111156,
            "byteOffset" : 114216
        },
        {
            "buffer" : 0,
            "byteLength" : 74104,
            "byteOffset" : 225372
        },
        {
            "buffer" : 0,
            "byteLength" : 33912,
            "byteOffset" : 299476
        },
        {
            "buffer" : 0,
            "byteLength" : 5136,
            "byteOffset" : 333388
        },
        {
            "buffer" : 0,
            "byteLength" : 5136,
            "byteOffset" : 338524
        },
        {
            "buffer" : 0,
            "byteLength" : 3424,
            "byteOffset" : 343660
        },
        {
            "buffer" : 0,
            "byteLength" : 1776,
            "byteOffset" : 347084
        },
        {
            "buffer" : 0,
            "byteLength" : 168,
            "byteOffset" : 348860
        },
        {
            "buffer" : 0,
            "byteLength" : 168,
            "byteOffset" : 349028
        },
        {
            "buffer" : 0,
            "byteLength" : 112,
            "byteOffset" : 349196
        },
        {
            "buffer" : 0,
            "byteLength" : 48,
            "byteOffset" : 349308
        },
        {
            "buffer" : 0,
            "byteLength" : 4608,
            "byteOffset" : 349356
        },
        {
            "buffer" : 0,
            "byteLength" : 4608,
            "byteOffset" : 353964
        },
        {
            "buffer" : 0,
            "byteLength" : 3072,
            "byteOffset" : 358572
        },
        {
            "buffer" : 0,
            "byteLength" : 1464,
            "byteOffset" : 361644
        },
        {
            "buffer" : 0,
            "byteLength" : 1008,
            "byteOffset" : 363108
        },
        {
            "buffer" : 0,
            "byteLength" : 1008,
            "byteOffset" : 364116
        },
        {
            "buffer" : 0,
            "byteLength" : 672,
            "byteOffset" : 365124
        }
    ],
    "buffers" : [
        {
            "byteLength" : 365796,
            "uri" : "data:application/octet-stream;base64,"
        }
    ]
}
