{
    "asset" : {
        "generator" : "Khronos glTF Blender I/O v1.5.17",
        "version" : "2.0"
    },
    "scene" : 0,
    "scenes" : [
        {
            "name" : "Scene",
            "nodes" : [
                0,
                1,
                2,
                3
            ]
        }
    ],
    "nodes" : [
        {
            "mesh" : 0,
            "name" : "Curve.033",
            "rotation" : [
                0.7071068286895752,
                0,
                0,
                0.7071068286895752
            ],
            "scale" : [
                8.69552230834961,
                8.69552230834961,
                8.69552230834961
            ],
            "translation" : [
                -0.5292960405349731,
                -0.06692357361316681,
                0
            ]
        },
        {
            "mesh" : 1,
            "name" : "Curve.034",
            "rotation" : [
                0.7071068286895752,
                0,
                0,
                0.7071068286895752
            ],
            "scale" : [
                8.69552230834961,
                8.69552230834961,
                8.69552230834961
            ],
            "translation" : [
                -0.5292960405349731,
                -0.06692357361316681,
                0
            ]
        },
        {
            "mesh" : 2,
            "name" : "Curve.035",
            "rotation" : [
                0.7071068286895752,
                0,
                0,
                0.7071068286895752
            ],
            "scale" : [
                8.69552230834961,
                8.69552230834961,
                8.69552230834961
            ],
            "translation" : [
                -0.5292960405349731,
                -0.06692357361316681,
                0
            ]
        },
        {
            "mesh" : 3,
            "name" : "Curve.036",
            "rotation" : [
                0.7071068286895752,
                0,
                0,
                0.7071068286895752
            ],
            "scale" : [
                14.418909072875977,
                14.418909072875977,
                14.418909072875977
            ],
            "translation" : [
                -0.2408321052789688,
                0.23823386430740356,
                0
            ]
        }
    ],
    "materials" : [
        {
            "doubleSided" : true,
            "emissiveFactor" : [
                1,
                1,
                1
            ],
            "name" : "SVGMat.028",
            "pbrMetallicRoughness" : {
                "baseColorFactor" : [
                    0.800000011920929,
                    0.800000011920929,
                    0.800000011920929,
                    1
                ],
                "metallicFactor" : 0,
                "roughnessFactor" : 0.5
            }
        },
        {
            "doubleSided" : true,
            "emissiveFactor" : [
                0.8709999918937683,
                0.08337206393480301,
                0.03309798985719681
            ],
            "name" : "SVGMat.044",
            "pbrMetallicRoughness" : {
                "baseColorFactor" : [
                    0.8709999918937683,
                    0.08561357110738754,
                    0.03309798985719681,
                    1
                ],
                "metallicFactor" : 0,
                "roughnessFactor" : 0.5
            }
        }
    ],
    "meshes" : [
        {
            "name" : "Curve.035",
            "primitives" : [
                {
                    "attributes" : {
                        "POSITION" : 0,
                        "NORMAL" : 1,
                        "TEXCOORD_0" : 2
                    },
                    "indices" : 3,
                    "material" : 0
                }
            ]
        },
        {
            "name" : "Curve.036",
            "primitives" : [
                {
                    "attributes" : {
                        "POSITION" : 4,
                        "NORMAL" : 5,
                        "TEXCOORD_0" : 6
                    },
                    "indices" : 7,
                    "material" : 0
                }
            ]
        },
        {
            "name" : "Curve.037",
            "primitives" : [
                {
                    "attributes" : {
                        "POSITION" : 8,
                        "NORMAL" : 9,
                        "TEXCOORD_0" : 10
                    },
                    "indices" : 11,
                    "material" : 0
                }
            ]
        },
        {
            "name" : "Curve.038",
            "primitives" : [
                {
                    "attributes" : {
                        "POSITION" : 12,
                        "NORMAL" : 13,
                        "TEXCOORD_0" : 14
                    },
                    "indices" : 15,
                    "material" : 1
                }
            ]
        }
    ],
    "accessors" : [
        {
            "bufferView" : 0,
            "componentType" : 5126,
            "count" : 1990,
            "max" : [
                0.05470453202724457,
                0.0010000000474974513,
                -0.0009909961372613907
            ],
            "min" : [
                0.03836991265416145,
                -0.0010000000474974513,
                -0.024257417768239975
            ],
            "type" : "VEC3"
        },
        {
            "bufferView" : 1,
            "componentType" : 5126,
            "count" : 1990,
            "type" : "VEC3"
        },
        {
            "bufferView" : 2,
            "componentType" : 5126,
            "count" : 1990,
            "type" : "VEC2"
        },
        {
            "bufferView" : 3,
            "componentType" : 5123,
            "count" : 3648,
            "type" : "SCALAR"
        },
        {
            "bufferView" : 4,
            "componentType" : 5126,
            "count" : 835,
            "max" : [
                0.06489866971969604,
                0.0010000000474974513,
                -0.008258281275629997
            ],
            "min" : [
                0.05614756420254707,
                -0.0010000000474974513,
                -0.03217024728655815
            ],
            "type" : "VEC3"
        },
        {
            "bufferView" : 5,
            "componentType" : 5126,
            "count" : 835,
            "type" : "VEC3"
        },
        {
            "bufferView" : 6,
            "componentType" : 5126,
            "count" : 835,
            "type" : "VEC2"
        },
        {
            "bufferView" : 7,
            "componentType" : 5123,
            "count" : 1500,
            "type" : "SCALAR"
        },
        {
            "bufferView" : 8,
            "componentType" : 5126,
            "count" : 907,
            "max" : [
                0.07703977823257446,
                0.0010000000474974513,
                -0.00822095014154911
            ],
            "min" : [
                0.06460408866405487,
                -0.0010000000474974513,
                -0.029248420149087906
            ],
            "type" : "VEC3"
        },
        {
            "bufferView" : 9,
            "componentType" : 5126,
            "count" : 907,
            "type" : "VEC3"
        },
        {
            "bufferView" : 10,
            "componentType" : 5126,
            "count" : 907,
            "type" : "VEC2"
        },
        {
            "bufferView" : 11,
            "componentType" : 5123,
            "count" : 1776,
            "type" : "SCALAR"
        },
        {
            "bufferView" : 12,
            "componentType" : 5126,
            "count" : 1927,
            "max" : [
                0.032153673470020294,
                0.0024999999441206455,
                7.869493856560439e-07
            ],
            "min" : [
                3.5244738683104515e-08,
                -0.0024999999441206455,
                -0.03214476630091667
            ],
            "type" : "VEC3"
        },
        {
            "bufferView" : 13,
            "componentType" : 5126,
            "count" : 1927,
            "type" : "VEC3"
        },
        {
            "bufferView" : 14,
            "componentType" : 5126,
            "count" : 1927,
            "type" : "VEC2"
        },
        {
            "bufferView" : 15,
            "componentType" : 5123,
            "count" : 3492,
            "type" : "SCALAR"
        }
    ],
    "bufferViews" : [
        {
            "buffer" : 0,
            "byteLength" : 23880,
            "byteOffset" : 0
        },
        {
            "buffer" : 0,
            "byteLength" : 23880,
            "byteOffset" : 23880
        },
        {
            "buffer" : 0,
            "byteLength" : 15920,
            "byteOffset" : 47760
        },
        {
            "buffer" : 0,
            "byteLength" : 7296,
            "byteOffset" : 63680
        },
        {
            "buffer" : 0,
            "byteLength" : 10020,
            "byteOffset" : 70976
        },
        {
            "buffer" : 0,
            "byteLength" : 10020,
            "byteOffset" : 80996
        },
        {
            "buffer" : 0,
            "byteLength" : 6680,
            "byteOffset" : 91016
        },
        {
            "buffer" : 0,
            "byteLength" : 3000,
            "byteOffset" : 97696
        },
        {
            "buffer" : 0,
            "byteLength" : 10884,
            "byteOffset" : 100696
        },
        {
            "buffer" : 0,
            "byteLength" : 10884,
            "byteOffset" : 111580
        },
        {
            "buffer" : 0,
            "byteLength" : 7256,
            "byteOffset" : 122464
        },
        {
            "buffer" : 0,
            "byteLength" : 3552,
            "byteOffset" : 129720
        },
        {
            "buffer" : 0,
            "byteLength" : 23124,
            "byteOffset" : 133272
        },
        {
            "buffer" : 0,
            "byteLength" : 23124,
            "byteOffset" : 156396
        },
        {
            "buffer" : 0,
            "byteLength" : 15416,
            "byteOffset" : 179520
        },
        {
            "buffer" : 0,
            "byteLength" : 6984,
            "byteOffset" : 194936
        }
    ],
    "buffers" : [
        {
            "byteLength" : 201920,
            "uri" : "data:application/octet-stream;base64,"
        }
    ]
}
