{
    "asset" : {
        "generator" : "Khronos glTF Blender I/O v1.5.17",
        "version" : "2.0"
    },
    "scene" : 0,
    "scenes" : [
        {
            "name" : "Scene",
            "nodes" : [
                0,
                1,
                2,
                3,
                4
            ]
        }
    ],
    "nodes" : [
        {
            "mesh" : 0,
            "name" : "Curve.017",
            "rotation" : [
                0.7071068286895752,
                0,
                0,
                0.7071068286895752
            ],
            "scale" : [
                4.590388774871826,
                4.590388774871826,
                4.590388774871826
            ],
            "translation" : [
                -0.33126869797706604,
                0,
                0
            ]
        },
        {
            "mesh" : 1,
            "name" : "Curve.018",
            "rotation" : [
                0.7071068286895752,
                0,
                0,
                0.7071068286895752
            ],
            "scale" : [
                4.590388774871826,
                4.590388774871826,
                4.590388774871826
            ],
            "translation" : [
                -0.33126869797706604,
                0,
                0
            ]
        },
        {
            "mesh" : 2,
            "name" : "Curve.028",
            "rotation" : [
                0.7071068286895752,
                0,
                0,
                0.7071068286895752
            ],
            "scale" : [
                4.590388774871826,
                4.590388774871826,
                4.590388774871826
            ],
            "translation" : [
                -0.33126869797706604,
                0,
                0
            ]
        },
        {
            "mesh" : 3,
            "name" : "Curve.029",
            "rotation" : [
                0.7071068286895752,
                0,
                0,
                0.7071068286895752
            ],
            "scale" : [
                4.590388774871826,
                4.590388774871826,
                4.590388774871826
            ],
            "translation" : [
                -0.33126869797706604,
                0,
                0.014532385393977165
            ]
        },
        {
            "mesh" : 4,
            "name" : "Curve.030",
            "rotation" : [
                0.7071068286895752,
                0,
                0,
                0.7071068286895752
            ],
            "scale" : [
                4.590388774871826,
                4.590388774871826,
                4.590388774871826
            ],
            "translation" : [
                -0.33126869797706604,
                0,
                0.014532385393977165
            ]
        }
    ],
    "materials" : [
        {
            "doubleSided" : true,
            "emissiveFactor" : [
                1,
                1,
                1
            ],
            "name" : "SVGMat.028",
            "pbrMetallicRoughness" : {
                "baseColorFactor" : [
                    0.800000011920929,
                    0.800000011920929,
                    0.800000011920929,
                    1
                ],
                "metallicFactor" : 0,
                "roughnessFactor" : 0.5
            }
        },
        {
            "doubleSided" : true,
            "emissiveFactor" : [
                0.7760000228881836,
                0.07387520372867584,
                0.019399981945753098
            ],
            "name" : "SVGMat.033",
            "pbrMetallicRoughness" : {
                "baseColorFactor" : [
                    0.7760000228881836,
                    0.07387520372867584,
                    0.019399981945753098,
                    1
                ],
                "metallicFactor" : 0,
                "roughnessFactor" : 0.5
            }
        },
        {
            "doubleSided" : true,
            "emissiveFactor" : [
                0.8799999952316284,
                0.1301080286502838,
                0.02199997939169407
            ],
            "name" : "SVGMat.034",
            "pbrMetallicRoughness" : {
                "baseColorFactor" : [
                    0.8799999952316284,
                    0.1301080286502838,
                    0.02199997939169407,
                    1
                ],
                "metallicFactor" : 0,
                "roughnessFactor" : 0.5
            }
        }
    ],
    "meshes" : [
        {
            "name" : "Curve.028",
            "primitives" : [
                {
                    "attributes" : {
                        "POSITION" : 0
                    },
                    "indices" : 1,
                    "material" : 0
                }
            ]
        },
        {
            "name" : "Curve.029",
            "primitives" : [
                {
                    "attributes" : {
                        "POSITION" : 2
                    },
                    "indices" : 3,
                    "material" : 1
                }
            ]
        },
        {
            "name" : "Curve.030",
            "primitives" : [
                {
                    "attributes" : {
                        "POSITION" : 4
                    },
                    "indices" : 5,
                    "material" : 2
                }
            ]
        },
        {
            "name" : "Curve.031",
            "primitives" : [
                {
                    "attributes" : {
                        "POSITION" : 6
                    },
                    "indices" : 7,
                    "material" : 0
                }
            ]
        },
        {
            "name" : "Curve.032",
            "primitives" : [
                {
                    "attributes" : {
                        "POSITION" : 8
                    },
                    "indices" : 9,
                    "material" : 0
                }
            ]
        }
    ],
    "accessors" : [
        {
            "bufferView" : 0,
            "componentType" : 5126,
            "count" : 152,
            "max" : [
                0.11410477757453918,
                0.0010000000474974513,
                -0.12500059604644775
            ],
            "min" : [
                0.030593514442443848,
                -0.0010000000474974513,
                -0.14447021484375
            ],
            "type" : "VEC3"
        },
        {
            "bufferView" : 1,
            "componentType" : 5123,
            "count" : 408,
            "type" : "SCALAR"
        },
        {
            "bufferView" : 2,
            "componentType" : 5126,
            "count" : 20,
            "max" : [
                0.123446524143219,
                0.004999999888241291,
                0
            ],
            "min" : [
                0.021054208278656006,
                -0.004999999888241291,
                -0.11608407646417618
            ],
            "type" : "VEC3"
        },
        {
            "bufferView" : 3,
            "componentType" : 5123,
            "count" : 48,
            "type" : "SCALAR"
        },
        {
            "bufferView" : 4,
            "componentType" : 5126,
            "count" : 16,
            "max" : [
                0.11410477757453918,
                0.005009999964386225,
                -0.008888304233551025
            ],
            "min" : [
                0.0722503662109375,
                -0.005009999964386225,
                -0.1075061559677124
            ],
            "type" : "VEC3"
        },
        {
            "bufferView" : 5,
            "componentType" : 5123,
            "count" : 36,
            "type" : "SCALAR"
        },
        {
            "bufferView" : 6,
            "componentType" : 5126,
            "count" : 56,
            "max" : [
                0.0722503662109375,
                0.007499999832361937,
                -0.022122003138065338
            ],
            "min" : [
                0.040076375007629395,
                -0.007499999832361937,
                -0.09472392499446869
            ],
            "type" : "VEC3"
        },
        {
            "bufferView" : 7,
            "componentType" : 5123,
            "count" : 144,
            "type" : "SCALAR"
        },
        {
            "bufferView" : 8,
            "componentType" : 5126,
            "count" : 48,
            "max" : [
                0.10431146621704102,
                0.007499999832361937,
                -0.02217843383550644
            ],
            "min" : [
                0.0721939206123352,
                -0.007499999832361937,
                -0.09472392499446869
            ],
            "type" : "VEC3"
        },
        {
            "bufferView" : 9,
            "componentType" : 5123,
            "count" : 120,
            "type" : "SCALAR"
        }
    ],
    "bufferViews" : [
        {
            "buffer" : 0,
            "byteLength" : 1824,
            "byteOffset" : 0
        },
        {
            "buffer" : 0,
            "byteLength" : 816,
            "byteOffset" : 1824
        },
        {
            "buffer" : 0,
            "byteLength" : 240,
            "byteOffset" : 2640
        },
        {
            "buffer" : 0,
            "byteLength" : 96,
            "byteOffset" : 2880
        },
        {
            "buffer" : 0,
            "byteLength" : 192,
            "byteOffset" : 2976
        },
        {
            "buffer" : 0,
            "byteLength" : 72,
            "byteOffset" : 3168
        },
        {
            "buffer" : 0,
            "byteLength" : 672,
            "byteOffset" : 3240
        },
        {
            "buffer" : 0,
            "byteLength" : 288,
            "byteOffset" : 3912
        },
        {
            "buffer" : 0,
            "byteLength" : 576,
            "byteOffset" : 4200
        },
        {
            "buffer" : 0,
            "byteLength" : 240,
            "byteOffset" : 4776
        }
    ],
    "buffers" : [
        {
            "byteLength" : 5016,
            "uri" : "data:application/octet-stream;base64,"
        }
    ]
}
