{
    "asset" : {
        "generator" : "Khronos glTF Blender I/O v1.5.17",
        "version" : "2.0"
    },
    "scene" : 0,
    "scenes" : [
        {
            "name" : "Scene",
            "nodes" : [
                0,
                1,
                2,
                3,
                4
            ]
        }
    ],
    "nodes" : [
        {
            "mesh" : 0,
            "name" : "Curve.006",
            "rotation" : [
                0.7071068286895752,
                0,
                0,
                0.7071068286895752
            ],
            "scale" : [
                5.08118200302124,
                5.08118200302124,
                5.08118200302124
            ],
            "translation" : [
                -0.8608280420303345,
                -0.03288417309522629,
                0
            ]
        },
        {
            "mesh" : 1,
            "name" : "Curve.007",
            "rotation" : [
                0.7071068286895752,
                0,
                0,
                0.7071068286895752
            ],
            "scale" : [
                5.08118200302124,
                5.08118200302124,
                5.08118200302124
            ],
            "translation" : [
                -0.8608280420303345,
                -0.03288417309522629,
                0
            ]
        },
        {
            "mesh" : 2,
            "name" : "Curve.008",
            "rotation" : [
                0.7071068286895752,
                0,
                0,
                0.7071068286895752
            ],
            "scale" : [
                5.08118200302124,
                5.08118200302124,
                5.08118200302124
            ],
            "translation" : [
                -0.8608280420303345,
                -0.03288417309522629,
                0
            ]
        },
        {
            "mesh" : 3,
            "name" : "Curve.009",
            "rotation" : [
                0.7071068286895752,
                0,
                0,
                0.7071068286895752
            ],
            "scale" : [
                5.08118200302124,
                5.08118200302124,
                5.08118200302124
            ],
            "translation" : [
                -0.8608280420303345,
                -0.03288417309522629,
                0
            ]
        },
        {
            "mesh" : 4,
            "name" : "Curve.010",
            "rotation" : [
                0.7071068286895752,
                0,
                0,
                0.7071068286895752
            ],
            "scale" : [
                5.08118200302124,
                5.08118200302124,
                5.08118200302124
            ],
            "translation" : [
                -0.8608280420303345,
                -0.03288417309522629,
                0
            ]
        }
    ],
    "materials" : [
        {
            "doubleSided" : true,
            "emissiveFactor" : [
                0.2579514101922271,
                0.5099484118402273,
                0.699999988079071
            ],
            "name" : "SVGMat.011",
            "pbrMetallicRoughness" : {
                "baseColorFactor" : [
                    0.800000011920929,
                    0.800000011920929,
                    0.800000011920929,
                    1
                ],
                "metallicFactor" : 0,
                "roughnessFactor" : 0.5
            }
        },
        {
            "doubleSided" : true,
            "emissiveFactor" : [
                1,
                0.5225215554237366,
                0
            ],
            "name" : "SVGMat.012",
            "pbrMetallicRoughness" : {
                "baseColorFactor" : [
                    0.8000000715255737,
                    0.11679459363222122,
                    0,
                    1
                ],
                "metallicFactor" : 0,
                "roughnessFactor" : 0.5
            }
        }
    ],
    "meshes" : [
        {
            "name" : "Curve.012",
            "primitives" : [
                {
                    "attributes" : {
                        "POSITION" : 0,
                        "NORMAL" : 1,
                        "TEXCOORD_0" : 2
                    },
                    "indices" : 3,
                    "material" : 0
                }
            ]
        },
        {
            "name" : "Curve.013",
            "primitives" : [
                {
                    "attributes" : {
                        "POSITION" : 4,
                        "NORMAL" : 5,
                        "TEXCOORD_0" : 6
                    },
                    "indices" : 7,
                    "material" : 1
                }
            ]
        },
        {
            "name" : "Curve.014",
            "primitives" : [
                {
                    "attributes" : {
                        "POSITION" : 8,
                        "NORMAL" : 9,
                        "TEXCOORD_0" : 10
                    },
                    "indices" : 11,
                    "material" : 0
                }
            ]
        },
        {
            "name" : "Curve.015",
            "primitives" : [
                {
                    "attributes" : {
                        "POSITION" : 12,
                        "NORMAL" : 13,
                        "TEXCOORD_0" : 14
                    },
                    "indices" : 15,
                    "material" : 1
                }
            ]
        },
        {
            "name" : "Curve.016",
            "primitives" : [
                {
                    "attributes" : {
                        "POSITION" : 16,
                        "NORMAL" : 17,
                        "TEXCOORD_0" : 18
                    },
                    "indices" : 19,
                    "material" : 0
                }
            ]
        }
    ],
    "accessors" : [
        {
            "bufferView" : 0,
            "componentType" : 5126,
            "count" : 714,
            "max" : [
                0.2099745124578476,
                0.004999999888241291,
                -0.02970004826784134
            ],
            "min" : [
                0.14785592257976532,
                -0.004999999888241291,
                -0.081429123878479
            ],
            "type" : "VEC3"
        },
        {
            "bufferView" : 1,
            "componentType" : 5126,
            "count" : 714,
            "type" : "VEC3"
        },
        {
            "bufferView" : 2,
            "componentType" : 5126,
            "count" : 714,
            "type" : "VEC2"
        },
        {
            "bufferView" : 3,
            "componentType" : 5123,
            "count" : 1380,
            "type" : "SCALAR"
        },
        {
            "bufferView" : 4,
            "componentType" : 5126,
            "count" : 327,
            "max" : [
                0.1926153302192688,
                0.004999999888241291,
                -0.08970889449119568
            ],
            "min" : [
                0.16965802013874054,
                -0.004999999888241291,
                -0.128872811794281
            ],
            "type" : "VEC3"
        },
        {
            "bufferView" : 5,
            "componentType" : 5126,
            "count" : 327,
            "type" : "VEC3"
        },
        {
            "bufferView" : 6,
            "componentType" : 5126,
            "count" : 327,
            "type" : "VEC2"
        },
        {
            "bufferView" : 7,
            "componentType" : 5123,
            "count" : 564,
            "type" : "SCALAR"
        },
        {
            "bufferView" : 8,
            "componentType" : 5126,
            "count" : 1335,
            "max" : [
                0.20730534195899963,
                0.004999999888241291,
                -0.0516664944589138
            ],
            "min" : [
                0.13127858936786652,
                -0.004999999888241291,
                -0.09409675002098083
            ],
            "type" : "VEC3"
        },
        {
            "bufferView" : 9,
            "componentType" : 5126,
            "count" : 1335,
            "type" : "VEC3"
        },
        {
            "bufferView" : 10,
            "componentType" : 5126,
            "count" : 1335,
            "type" : "VEC2"
        },
        {
            "bufferView" : 11,
            "componentType" : 5123,
            "count" : 2412,
            "type" : "SCALAR"
        },
        {
            "bufferView" : 12,
            "componentType" : 5126,
            "count" : 290,
            "max" : [
                0.18243230879306793,
                0.004999999888241291,
                -0.0933271199464798
            ],
            "min" : [
                0.155842587351799,
                -0.004999999888241291,
                -0.149955615401268
            ],
            "type" : "VEC3"
        },
        {
            "bufferView" : 13,
            "componentType" : 5126,
            "count" : 290,
            "type" : "VEC3"
        },
        {
            "bufferView" : 14,
            "componentType" : 5126,
            "count" : 290,
            "type" : "VEC2"
        },
        {
            "bufferView" : 15,
            "componentType" : 5123,
            "count" : 564,
            "type" : "SCALAR"
        },
        {
            "bufferView" : 16,
            "componentType" : 5126,
            "count" : 3439,
            "max" : [
                0.20742298662662506,
                0.003000000026077032,
                0.0005341917276382446
            ],
            "min" : [
                0.1290438175201416,
                -0.003000000026077032,
                -0.056513577699661255
            ],
            "type" : "VEC3"
        },
        {
            "bufferView" : 17,
            "componentType" : 5126,
            "count" : 3439,
            "type" : "VEC3"
        },
        {
            "bufferView" : 18,
            "componentType" : 5126,
            "count" : 3439,
            "type" : "VEC2"
        },
        {
            "bufferView" : 19,
            "componentType" : 5123,
            "count" : 6312,
            "type" : "SCALAR"
        }
    ],
    "bufferViews" : [
        {
            "buffer" : 0,
            "byteLength" : 8568,
            "byteOffset" : 0
        },
        {
            "buffer" : 0,
            "byteLength" : 8568,
            "byteOffset" : 8568
        },
        {
            "buffer" : 0,
            "byteLength" : 5712,
            "byteOffset" : 17136
        },
        {
            "buffer" : 0,
            "byteLength" : 2760,
            "byteOffset" : 22848
        },
        {
            "buffer" : 0,
            "byteLength" : 3924,
            "byteOffset" : 25608
        },
        {
            "buffer" : 0,
            "byteLength" : 3924,
            "byteOffset" : 29532
        },
        {
            "buffer" : 0,
            "byteLength" : 2616,
            "byteOffset" : 33456
        },
        {
            "buffer" : 0,
            "byteLength" : 1128,
            "byteOffset" : 36072
        },
        {
            "buffer" : 0,
            "byteLength" : 16020,
            "byteOffset" : 37200
        },
        {
            "buffer" : 0,
            "byteLength" : 16020,
            "byteOffset" : 53220
        },
        {
            "buffer" : 0,
            "byteLength" : 10680,
            "byteOffset" : 69240
        },
        {
            "buffer" : 0,
            "byteLength" : 4824,
            "byteOffset" : 79920
        },
        {
            "buffer" : 0,
            "byteLength" : 3480,
            "byteOffset" : 84744
        },
        {
            "buffer" : 0,
            "byteLength" : 3480,
            "byteOffset" : 88224
        },
        {
            "buffer" : 0,
            "byteLength" : 2320,
            "byteOffset" : 91704
        },
        {
            "buffer" : 0,
            "byteLength" : 1128,
            "byteOffset" : 94024
        },
        {
            "buffer" : 0,
            "byteLength" : 41268,
            "byteOffset" : 95152
        },
        {
            "buffer" : 0,
            "byteLength" : 41268,
            "byteOffset" : 136420
        },
        {
            "buffer" : 0,
            "byteLength" : 27512,
            "byteOffset" : 177688
        },
        {
            "buffer" : 0,
            "byteLength" : 12624,
            "byteOffset" : 205200
        }
    ],
    "buffers" : [
        {
            "byteLength" : 217824,
            "uri" : "data:application/octet-stream;base64,"
        }
    ]
}
