{
    "asset" : {
        "generator" : "Khronos glTF Blender I/O v1.5.17",
        "version" : "2.0"
    },
    "scene" : 0,
    "scenes" : [
        {
            "name" : "Scene",
            "nodes" : [
                0,
                1,
                2,
                3
            ]
        }
    ],
    "nodes" : [
        {
            "mesh" : 0,
            "name" : "Curve.002",
            "rotation" : [
                0.7071068286895752,
                0,
                0,
                0.7071068286895752
            ],
            "scale" : [
                24.625980377197266,
                24.625980377197266,
                24.625980377197266
            ],
            "translation" : [
                -0.5210198760032654,
                0.25022903084754944,
                0
            ]
        },
        {
            "mesh" : 1,
            "name" : "Curve.003",
            "rotation" : [
                0.7071068286895752,
                0,
                0,
                0.7071068286895752
            ],
            "scale" : [
                62.3515510559082,
                62.3515510559082,
                62.3515510559082
            ],
            "translation" : [
                -0.3357858657836914,
                0.9053994417190552,
                0
            ]
        },
        {
            "mesh" : 2,
            "name" : "Curve.004",
            "rotation" : [
                0.7071068286895752,
                0,
                0,
                0.7071068286895752
            ],
            "scale" : [
                62.3515510559082,
                62.3515510559082,
                62.3515510559082
            ],
            "translation" : [
                -0.3357858657836914,
                0.9053994417190552,
                0
            ]
        },
        {
            "mesh" : 3,
            "name" : "Curve.005",
            "rotation" : [
                0.7071068286895752,
                0,
                0,
                0.7071068286895752
            ],
            "scale" : [
                24.625980377197266,
                24.625980377197266,
                24.625980377197266
            ],
            "translation" : [
                -0.5210198760032654,
                0.25022903084754944,
                0
            ]
        }
    ],
    "materials" : [
        {
            "doubleSided" : true,
            "emissiveFactor" : [
                1,
                1,
                1
            ],
            "name" : "SVGMat.005",
            "pbrMetallicRoughness" : {
                "baseColorFactor" : [
                    0.800000011920929,
                    0.800000011920929,
                    0.800000011920929,
                    1
                ],
                "metallicFactor" : 0,
                "roughnessFactor" : 0.5
            }
        },
        {
            "doubleSided" : true,
            "emissiveFactor" : [
                0.059466841630637646,
                0.16558626666665077,
                0.5000000074505806
            ],
            "name" : "python blue",
            "pbrMetallicRoughness" : {
                "baseColorFactor" : [
                    0,
                    0.10125389695167542,
                    0.34238407015800476,
                    1
                ],
                "metallicFactor" : 0,
                "roughnessFactor" : 0.5
            }
        },
        {
            "doubleSided" : true,
            "emissiveFactor" : [
                1,
                0.7875688374042511,
                0.07192912977188826
            ],
            "name" : "python yellow",
            "pbrMetallicRoughness" : {
                "baseColorFactor" : [
                    1,
                    0.6298120021820068,
                    0,
                    1
                ],
                "metallicFactor" : 0,
                "roughnessFactor" : 0.5
            }
        }
    ],
    "meshes" : [
        {
            "name" : "Curve.007",
            "primitives" : [
                {
                    "attributes" : {
                        "POSITION" : 0,
                        "NORMAL" : 1,
                        "TEXCOORD_0" : 2
                    },
                    "indices" : 3,
                    "material" : 0
                }
            ]
        },
        {
            "name" : "Curve.008",
            "primitives" : [
                {
                    "attributes" : {
                        "POSITION" : 4,
                        "NORMAL" : 5,
                        "TEXCOORD_0" : 6
                    },
                    "indices" : 7,
                    "material" : 1
                }
            ]
        },
        {
            "name" : "Curve.009",
            "primitives" : [
                {
                    "attributes" : {
                        "POSITION" : 8,
                        "NORMAL" : 9,
                        "TEXCOORD_0" : 10
                    },
                    "indices" : 11,
                    "material" : 2
                }
            ]
        },
        {
            "name" : "Curve.010",
            "primitives" : [
                {
                    "attributes" : {
                        "POSITION" : 12,
                        "NORMAL" : 13,
                        "TEXCOORD_0" : 14
                    },
                    "indices" : 15,
                    "material" : 0
                }
            ]
        }
    ],
    "accessors" : [
        {
            "bufferView" : 0,
            "componentType" : 5126,
            "count" : 5523,
            "max" : [
                0.031055983155965805,
                0.0005000000237487257,
                0.011816222220659256
            ],
            "min" : [
                0.011210222728550434,
                -0.0005000000237487257,
                0.004289031028747559
            ],
            "type" : "VEC3"
        },
        {
            "bufferView" : 1,
            "componentType" : 5126,
            "count" : 5523,
            "type" : "VEC3"
        },
        {
            "bufferView" : 2,
            "componentType" : 5126,
            "count" : 5523,
            "type" : "VEC2"
        },
        {
            "bufferView" : 3,
            "componentType" : 5123,
            "count" : 10272,
            "type" : "SCALAR"
        },
        {
            "bufferView" : 4,
            "componentType" : 5126,
            "count" : 1342,
            "max" : [
                0.007168701849877834,
                0.0005000000237487257,
                0.010036042891442776
            ],
            "min" : [
                0.0016829242231324315,
                -0.0005000000237487257,
                0.004498196765780449
            ],
            "type" : "VEC3"
        },
        {
            "bufferView" : 5,
            "componentType" : 5126,
            "count" : 1342,
            "type" : "VEC3"
        },
        {
            "bufferView" : 6,
            "componentType" : 5126,
            "count" : 1342,
            "type" : "VEC2"
        },
        {
            "bufferView" : 7,
            "componentType" : 5123,
            "count" : 2496,
            "type" : "SCALAR"
        },
        {
            "bufferView" : 8,
            "componentType" : 5126,
            "count" : 1251,
            "max" : [
                0.009094664826989174,
                0.0005000000237487257,
                0.011988330632448196
            ],
            "min" : [
                0.0035977261140942574,
                -0.0005000000237487257,
                0.006407980341464281
            ],
            "type" : "VEC3"
        },
        {
            "bufferView" : 9,
            "componentType" : 5126,
            "count" : 1251,
            "type" : "VEC3"
        },
        {
            "bufferView" : 10,
            "componentType" : 5126,
            "count" : 1251,
            "type" : "VEC2"
        },
        {
            "bufferView" : 11,
            "componentType" : 5123,
            "count" : 2352,
            "type" : "SCALAR"
        },
        {
            "bufferView" : 12,
            "componentType" : 5126,
            "count" : 123,
            "max" : [
                0.033335015177726746,
                0.0005000000237487257,
                0.005865055602043867
            ],
            "min" : [
                0.03196579962968826,
                -0.0005000000237487257,
                0.0051343669183552265
            ],
            "type" : "VEC3"
        },
        {
            "bufferView" : 13,
            "componentType" : 5126,
            "count" : 123,
            "type" : "VEC3"
        },
        {
            "bufferView" : 14,
            "componentType" : 5126,
            "count" : 123,
            "type" : "VEC2"
        },
        {
            "bufferView" : 15,
            "componentType" : 5123,
            "count" : 228,
            "type" : "SCALAR"
        }
    ],
    "bufferViews" : [
        {
            "buffer" : 0,
            "byteLength" : 66276,
            "byteOffset" : 0
        },
        {
            "buffer" : 0,
            "byteLength" : 66276,
            "byteOffset" : 66276
        },
        {
            "buffer" : 0,
            "byteLength" : 44184,
            "byteOffset" : 132552
        },
        {
            "buffer" : 0,
            "byteLength" : 20544,
            "byteOffset" : 176736
        },
        {
            "buffer" : 0,
            "byteLength" : 16104,
            "byteOffset" : 197280
        },
        {
            "buffer" : 0,
            "byteLength" : 16104,
            "byteOffset" : 213384
        },
        {
            "buffer" : 0,
            "byteLength" : 10736,
            "byteOffset" : 229488
        },
        {
            "buffer" : 0,
            "byteLength" : 4992,
            "byteOffset" : 240224
        },
        {
            "buffer" : 0,
            "byteLength" : 15012,
            "byteOffset" : 245216
        },
        {
            "buffer" : 0,
            "byteLength" : 15012,
            "byteOffset" : 260228
        },
        {
            "buffer" : 0,
            "byteLength" : 10008,
            "byteOffset" : 275240
        },
        {
            "buffer" : 0,
            "byteLength" : 4704,
            "byteOffset" : 285248
        },
        {
            "buffer" : 0,
            "byteLength" : 1476,
            "byteOffset" : 289952
        },
        {
            "buffer" : 0,
            "byteLength" : 1476,
            "byteOffset" : 291428
        },
        {
            "buffer" : 0,
            "byteLength" : 984,
            "byteOffset" : 292904
        },
        {
            "buffer" : 0,
            "byteLength" : 456,
            "byteOffset" : 293888
        }
    ],
    "buffers" : [
        {
            "byteLength" : 294344,
            "uri" : "data:application/octet-stream;base64,"
        }
    ]
}
