{
    "asset" : {
        "generator" : "Khronos glTF Blender I/O v1.5.17",
        "version" : "2.0"
    },
    "scene" : 0,
    "scenes" : [
        {
            "name" : "Scene",
            "nodes" : [
                0,
                1,
                2,
                3,
                4,
                5,
                6,
                7,
                8
            ]
        }
    ],
    "nodes" : [
        {
            "mesh" : 0,
            "name" : "Path",
            "rotation" : [
                0.7071068286895752,
                0,
                0,
                0.7071068286895752
            ],
            "scale" : [
                20.326610565185547,
                20.326610565185547,
                20.326610565185547
            ],
            "translation" : [
                -0.21523146331310272,
                0.009764555841684341,
                0
            ]
        },
        {
            "mesh" : 1,
            "name" : "Path-1",
            "rotation" : [
                0.7071068286895752,
                0,
                0,
                0.7071068286895752
            ],
            "scale" : [
                20.326610565185547,
                20.326610565185547,
                20.326610565185547
            ],
            "translation" : [
                -0.21523146331310272,
                0.009764555841684341,
                0
            ]
        },
        {
            "mesh" : 2,
            "name" : "Path-2",
            "rotation" : [
                0.7071068286895752,
                0,
                0,
                0.7071068286895752
            ],
            "scale" : [
                5.011345386505127,
                5.011345386505127,
                5.011345386505127
            ],
            "translation" : [
                -0.4248816967010498,
                -0.0384991392493248,
                0
            ]
        },
        {
            "mesh" : 3,
            "name" : "Path-3",
            "rotation" : [
                0.7071068286895752,
                0,
                0,
                0.7071068286895752
            ],
            "scale" : [
                5.011345386505127,
                5.011345386505127,
                5.011345386505127
            ],
            "translation" : [
                -0.4248816967010498,
                -0.0384991392493248,
                0
            ]
        },
        {
            "mesh" : 4,
            "name" : "Path-4",
            "rotation" : [
                0.7071068286895752,
                0,
                0,
                0.7071068286895752
            ],
            "scale" : [
                5.011345386505127,
                5.011345386505127,
                5.011345386505127
            ],
            "translation" : [
                -0.4248816967010498,
                -0.0384991392493248,
                0
            ]
        },
        {
            "mesh" : 5,
            "name" : "Path-5",
            "rotation" : [
                0.7071068286895752,
                0,
                0,
                0.7071068286895752
            ],
            "scale" : [
                5.011345386505127,
                5.011345386505127,
                5.011345386505127
            ],
            "translation" : [
                -0.4248816967010498,
                -0.0384991392493248,
                0
            ]
        },
        {
            "mesh" : 6,
            "name" : "Path-6",
            "rotation" : [
                0.7071068286895752,
                0,
                0,
                0.7071068286895752
            ],
            "scale" : [
                5.011345386505127,
                5.011345386505127,
                5.011345386505127
            ],
            "translation" : [
                -0.4248816967010498,
                -0.0384991392493248,
                0
            ]
        },
        {
            "mesh" : 7,
            "name" : "Path-7",
            "rotation" : [
                0.7071068286895752,
                0,
                0,
                0.7071068286895752
            ],
            "scale" : [
                5.011345386505127,
                5.011345386505127,
                5.011345386505127
            ],
            "translation" : [
                -0.4248816967010498,
                -0.0384991392493248,
                0
            ]
        },
        {
            "mesh" : 8,
            "name" : "Path-8",
            "rotation" : [
                0.7071068286895752,
                0,
                0,
                0.7071068286895752
            ],
            "scale" : [
                5.011345386505127,
                5.011345386505127,
                5.011345386505127
            ],
            "translation" : [
                -0.4248816967010498,
                -0.0384991392493248,
                0
            ]
        }
    ],
    "materials" : [
        {
            "doubleSided" : true,
            "emissiveFactor" : [
                0.8550000190734863,
                0.06962607800960541,
                0.024794986471533775
            ],
            "name" : "SVGMat.035",
            "pbrMetallicRoughness" : {
                "baseColorFactor" : [
                    0.8550000190734863,
                    0.06962607800960541,
                    0.024794986471533775,
                    1
                ],
                "metallicFactor" : 0,
                "roughnessFactor" : 0.5
            }
        },
        {
            "doubleSided" : true,
            "emissiveFactor" : [
                1,
                1,
                1
            ],
            "name" : "SVGMat.028",
            "pbrMetallicRoughness" : {
                "baseColorFactor" : [
                    0.800000011920929,
                    0.800000011920929,
                    0.800000011920929,
                    1
                ],
                "metallicFactor" : 0,
                "roughnessFactor" : 0.5
            }
        }
    ],
    "meshes" : [
        {
            "name" : "Path",
            "primitives" : [
                {
                    "attributes" : {
                        "POSITION" : 0,
                        "NORMAL" : 1,
                        "TEXCOORD_0" : 2
                    },
                    "indices" : 3,
                    "material" : 0
                }
            ]
        },
        {
            "name" : "Path-1",
            "primitives" : [
                {
                    "attributes" : {
                        "POSITION" : 4,
                        "NORMAL" : 5,
                        "TEXCOORD_0" : 6
                    },
                    "indices" : 7,
                    "material" : 0
                }
            ]
        },
        {
            "name" : "Path-2",
            "primitives" : [
                {
                    "attributes" : {
                        "POSITION" : 8,
                        "NORMAL" : 9,
                        "TEXCOORD_0" : 10
                    },
                    "indices" : 11,
                    "material" : 1
                }
            ]
        },
        {
            "name" : "Path-3",
            "primitives" : [
                {
                    "attributes" : {
                        "POSITION" : 12,
                        "NORMAL" : 13,
                        "TEXCOORD_0" : 14
                    },
                    "indices" : 15,
                    "material" : 1
                }
            ]
        },
        {
            "name" : "Path-4",
            "primitives" : [
                {
                    "attributes" : {
                        "POSITION" : 16,
                        "NORMAL" : 17,
                        "TEXCOORD_0" : 18
                    },
                    "indices" : 19,
                    "material" : 1
                }
            ]
        },
        {
            "name" : "Path-5",
            "primitives" : [
                {
                    "attributes" : {
                        "POSITION" : 20,
                        "NORMAL" : 21,
                        "TEXCOORD_0" : 22
                    },
                    "indices" : 23,
                    "material" : 1
                }
            ]
        },
        {
            "name" : "Path-6",
            "primitives" : [
                {
                    "attributes" : {
                        "POSITION" : 24,
                        "NORMAL" : 25,
                        "TEXCOORD_0" : 26
                    },
                    "indices" : 27,
                    "material" : 1
                }
            ]
        },
        {
            "name" : "Path-7",
            "primitives" : [
                {
                    "attributes" : {
                        "POSITION" : 28,
                        "NORMAL" : 29,
                        "TEXCOORD_0" : 30
                    },
                    "indices" : 31,
                    "material" : 1
                }
            ]
        },
        {
            "name" : "Path-8",
            "primitives" : [
                {
                    "attributes" : {
                        "POSITION" : 32,
                        "NORMAL" : 33,
                        "TEXCOORD_0" : 34
                    },
                    "indices" : 35,
                    "material" : 1
                }
            ]
        }
    ],
    "accessors" : [
        {
            "bufferView" : 0,
            "componentType" : 5126,
            "count" : 542,
            "max" : [
                0.020856648683547974,
                0.001500000013038516,
                -0.008436835370957851
            ],
            "min" : [
                0.00016933679580688477,
                -0.001500000013038516,
                -0.03343695402145386
            ],
            "type" : "VEC3"
        },
        {
            "bufferView" : 1,
            "componentType" : 5126,
            "count" : 542,
            "type" : "VEC3"
        },
        {
            "bufferView" : 2,
            "componentType" : 5126,
            "count" : 542,
            "type" : "VEC2"
        },
        {
            "bufferView" : 3,
            "componentType" : 5123,
            "count" : 1044,
            "type" : "SCALAR"
        },
        {
            "bufferView" : 4,
            "componentType" : 5126,
            "count" : 224,
            "max" : [
                0.015522539615631104,
                0.001500000013038516,
                -0.026608478277921677
            ],
            "min" : [
                0.012813150882720947,
                -0.001500000013038516,
                -0.02931729517877102
            ],
            "type" : "VEC3"
        },
        {
            "bufferView" : 5,
            "componentType" : 5126,
            "count" : 224,
            "type" : "VEC3"
        },
        {
            "bufferView" : 6,
            "componentType" : 5126,
            "count" : 224,
            "type" : "VEC2"
        },
        {
            "bufferView" : 7,
            "componentType" : 5123,
            "count" : 564,
            "type" : "SCALAR"
        },
        {
            "bufferView" : 8,
            "componentType" : 5126,
            "count" : 496,
            "max" : [
                0.04577738046646118,
                0.0010000000474974513,
                -0.008803652599453926
            ],
            "min" : [
                0.03112974762916565,
                -0.0010000000474974513,
                -0.03168750926852226
            ],
            "type" : "VEC3"
        },
        {
            "bufferView" : 9,
            "componentType" : 5126,
            "count" : 496,
            "type" : "VEC3"
        },
        {
            "bufferView" : 10,
            "componentType" : 5126,
            "count" : 496,
            "type" : "VEC2"
        },
        {
            "bufferView" : 11,
            "componentType" : 5123,
            "count" : 936,
            "type" : "SCALAR"
        },
        {
            "bufferView" : 12,
            "componentType" : 5126,
            "count" : 529,
            "max" : [
                0.06290861964225769,
                0.0010000000474974513,
                0
            ],
            "min" : [
                0.046398282051086426,
                -0.0010000000474974513,
                -0.02550802193582058
            ],
            "type" : "VEC3"
        },
        {
            "bufferView" : 13,
            "componentType" : 5126,
            "count" : 529,
            "type" : "VEC3"
        },
        {
            "bufferView" : 14,
            "componentType" : 5126,
            "count" : 529,
            "type" : "VEC2"
        },
        {
            "bufferView" : 15,
            "componentType" : 5123,
            "count" : 936,
            "type" : "SCALAR"
        },
        {
            "bufferView" : 16,
            "componentType" : 5126,
            "count" : 93,
            "max" : [
                0.07862871885299683,
                0.0010000000474974513,
                -0.008719002828001976
            ],
            "min" : [
                0.06022745370864868,
                -0.0010000000474974513,
                -0.03160285949707031
            ],
            "type" : "VEC3"
        },
        {
            "bufferView" : 17,
            "componentType" : 5126,
            "count" : 93,
            "type" : "VEC3"
        },
        {
            "bufferView" : 18,
            "componentType" : 5126,
            "count" : 93,
            "type" : "VEC2"
        },
        {
            "bufferView" : 19,
            "componentType" : 5123,
            "count" : 216,
            "type" : "SCALAR"
        },
        {
            "bufferView" : 20,
            "componentType" : 5126,
            "count" : 626,
            "max" : [
                0.09361502528190613,
                0.0010000000474974513,
                -0.008295750245451927
            ],
            "min" : [
                0.07727402448654175,
                -0.0010000000474974513,
                -0.025987708941102028
            ],
            "type" : "VEC3"
        },
        {
            "bufferView" : 21,
            "componentType" : 5126,
            "count" : 626,
            "type" : "VEC3"
        },
        {
            "bufferView" : 22,
            "componentType" : 5126,
            "count" : 626,
            "type" : "VEC2"
        },
        {
            "bufferView" : 23,
            "componentType" : 5123,
            "count" : 1152,
            "type" : "SCALAR"
        },
        {
            "bufferView" : 24,
            "componentType" : 5126,
            "count" : 522,
            "max" : [
                0.10716196894645691,
                0.0010000000474974513,
                -0.008719002828001976
            ],
            "min" : [
                0.09700176119804382,
                -0.0010000000474974513,
                -0.026015926152467728
            ],
            "type" : "VEC3"
        },
        {
            "bufferView" : 25,
            "componentType" : 5126,
            "count" : 522,
            "type" : "VEC3"
        },
        {
            "bufferView" : 26,
            "componentType" : 5126,
            "count" : 522,
            "type" : "VEC2"
        },
        {
            "bufferView" : 27,
            "componentType" : 5123,
            "count" : 900,
            "type" : "SCALAR"
        },
        {
            "bufferView" : 28,
            "componentType" : 5126,
            "count" : 794,
            "max" : [
                0.12132981419563293,
                0.0010000000474974513,
                -0.008295750245451927
            ],
            "min" : [
                0.1078675389289856,
                -0.0010000000474974513,
                -0.025987708941102028
            ],
            "type" : "VEC3"
        },
        {
            "bufferView" : 29,
            "componentType" : 5126,
            "count" : 794,
            "type" : "VEC3"
        },
        {
            "bufferView" : 30,
            "componentType" : 5126,
            "count" : 794,
            "type" : "VEC2"
        },
        {
            "bufferView" : 31,
            "componentType" : 5123,
            "count" : 1428,
            "type" : "SCALAR"
        },
        {
            "bufferView" : 32,
            "componentType" : 5126,
            "count" : 529,
            "max" : [
                0.13769903779029846,
                0.0010000000474974513,
                -0.008690787479281425
            ],
            "min" : [
                0.12432143092155457,
                -0.0010000000474974513,
                -0.03388842195272446
            ],
            "type" : "VEC3"
        },
        {
            "bufferView" : 33,
            "componentType" : 5126,
            "count" : 529,
            "type" : "VEC3"
        },
        {
            "bufferView" : 34,
            "componentType" : 5126,
            "count" : 529,
            "type" : "VEC2"
        },
        {
            "bufferView" : 35,
            "componentType" : 5123,
            "count" : 936,
            "type" : "SCALAR"
        }
    ],
    "bufferViews" : [
        {
            "buffer" : 0,
            "byteLength" : 6504,
            "byteOffset" : 0
        },
        {
            "buffer" : 0,
            "byteLength" : 6504,
            "byteOffset" : 6504
        },
        {
            "buffer" : 0,
            "byteLength" : 4336,
            "byteOffset" : 13008
        },
        {
            "buffer" : 0,
            "byteLength" : 2088,
            "byteOffset" : 17344
        },
        {
            "buffer" : 0,
            "byteLength" : 2688,
            "byteOffset" : 19432
        },
        {
            "buffer" : 0,
            "byteLength" : 2688,
            "byteOffset" : 22120
        },
        {
            "buffer" : 0,
            "byteLength" : 1792,
            "byteOffset" : 24808
        },
        {
            "buffer" : 0,
            "byteLength" : 1128,
            "byteOffset" : 26600
        },
        {
            "buffer" : 0,
            "byteLength" : 5952,
            "byteOffset" : 27728
        },
        {
            "buffer" : 0,
            "byteLength" : 5952,
            "byteOffset" : 33680
        },
        {
            "buffer" : 0,
            "byteLength" : 3968,
            "byteOffset" : 39632
        },
        {
            "buffer" : 0,
            "byteLength" : 1872,
            "byteOffset" : 43600
        },
        {
            "buffer" : 0,
            "byteLength" : 6348,
            "byteOffset" : 45472
        },
        {
            "buffer" : 0,
            "byteLength" : 6348,
            "byteOffset" : 51820
        },
        {
            "buffer" : 0,
            "byteLength" : 4232,
            "byteOffset" : 58168
        },
        {
            "buffer" : 0,
            "byteLength" : 1872,
            "byteOffset" : 62400
        },
        {
            "buffer" : 0,
            "byteLength" : 1116,
            "byteOffset" : 64272
        },
        {
            "buffer" : 0,
            "byteLength" : 1116,
            "byteOffset" : 65388
        },
        {
            "buffer" : 0,
            "byteLength" : 744,
            "byteOffset" : 66504
        },
        {
            "buffer" : 0,
            "byteLength" : 432,
            "byteOffset" : 67248
        },
        {
            "buffer" : 0,
            "byteLength" : 7512,
            "byteOffset" : 67680
        },
        {
            "buffer" : 0,
            "byteLength" : 7512,
            "byteOffset" : 75192
        },
        {
            "buffer" : 0,
            "byteLength" : 5008,
            "byteOffset" : 82704
        },
        {
            "buffer" : 0,
            "byteLength" : 2304,
            "byteOffset" : 87712
        },
        {
            "buffer" : 0,
            "byteLength" : 6264,
            "byteOffset" : 90016
        },
        {
            "buffer" : 0,
            "byteLength" : 6264,
            "byteOffset" : 96280
        },
        {
            "buffer" : 0,
            "byteLength" : 4176,
            "byteOffset" : 102544
        },
        {
            "buffer" : 0,
            "byteLength" : 1800,
            "byteOffset" : 106720
        },
        {
            "buffer" : 0,
            "byteLength" : 9528,
            "byteOffset" : 108520
        },
        {
            "buffer" : 0,
            "byteLength" : 9528,
            "byteOffset" : 118048
        },
        {
            "buffer" : 0,
            "byteLength" : 6352,
            "byteOffset" : 127576
        },
        {
            "buffer" : 0,
            "byteLength" : 2856,
            "byteOffset" : 133928
        },
        {
            "buffer" : 0,
            "byteLength" : 6348,
            "byteOffset" : 136784
        },
        {
            "buffer" : 0,
            "byteLength" : 6348,
            "byteOffset" : 143132
        },
        {
            "buffer" : 0,
            "byteLength" : 4232,
            "byteOffset" : 149480
        },
        {
            "buffer" : 0,
            "byteLength" : 1872,
            "byteOffset" : 153712
        }
    ],
    "buffers" : [
        {
            "byteLength" : 155584,
            "uri" : "data:application/octet-stream;base64,"
        }
    ]
}
